<?xml version="1.0" encoding="UTF-8" standalone="no"?>
<svg
   xmlns:dc="http://purl.org/dc/elements/1.1/"
   xmlns:cc="http://creativecommons.org/ns#"
   xmlns:rdf="http://www.w3.org/1999/02/22-rdf-syntax-ns#"
   xmlns:svg="http://www.w3.org/2000/svg"
   xmlns="http://www.w3.org/2000/svg"
   version="1.1"
   id="svg16913"
   viewBox="0 0 40.271343 741.3708"
   height="741.37079"
   width="40.271343">
  <defs
     id="defs16915" />
  <metadata
     id="metadata16918">
    <rdf:RDF>
      <cc:Work
         rdf:about="">
        <dc:format>image/svg+xml</dc:format>
        <dc:type
           rdf:resource="http://purl.org/dc/dcmitype/StillImage" />
        <dc:title></dc:title>
      </cc:Work>
    </rdf:RDF>
  </metadata>
  <g
     transform="translate(332.56603,144.20713)"
     id="layer1">
    <path
       id="path16820"
       d="m -314.71893,-21.143678 a 15.473993,310.42746 0 0 1 14.18371,309.173388 15.473993,310.42746 0 0 1 -14.18371,309.13394 l 0,-618.307328 z"
       style="opacity:1;fill:#666666;fill-opacity:1;stroke:none;stroke-width:3;stroke-linecap:round;stroke-linejoin:round;stroke-miterlimit:4;stroke-dasharray:none;stroke-opacity:1" />
    <path
       id="path16820-45"
       d="m -314.26033,-23.427629 a 15.473993,310.42746 0 0 0 -14.18371,309.173389 15.473993,310.42746 0 0 0 14.18371,309.13394 l 0,-618.307329 z"
       style="opacity:1;fill:#333333;fill-opacity:1;stroke:none;stroke-width:3;stroke-linecap:round;stroke-linejoin:round;stroke-miterlimit:4;stroke-dasharray:none;stroke-opacity:1" />
    <path
       id="path4147"
       d="m -312.49192,-138.68243 c -5.21102,9.19602 -14.11764,37.25896 -16.76381,52.819256 -6.46918,38.040887 -3.37524,64.858933 8.56864,74.272551 4.52295,3.5647743 4.54196,3.5622307 10.24314,-1.372038 9.33332,-8.077788 10.28549,-9.515493 13.89432,-20.979229 3.81573,-12.120944 5.14658,-24.304156 3.66105,-33.514925 -1.04383,-6.472158 -5.46312,-18.101277 -11.96101,-31.474817 -3.21246,-6.611678 -4.30262,-10.859208 -5.38751,-20.991168 -0.84866,-7.92584 -0.93973,-14.87985 -0.24216,-18.49329 l 1.11795,-5.79104 -3.13061,5.5247 z"
       style="fill:#000000" />
    <path
       id="path16820-4"
       d="m -314.17877,-22.441171 a 15.473993,310.42746 0 0 1 12.30002,122.684361 l -24.6075,0 a 15.473993,310.42746 0 0 1 12.30748,-122.684361 z"
       style="opacity:1;fill:#999999;fill-opacity:1;stroke:none;stroke-width:3;stroke-linecap:round;stroke-linejoin:round;stroke-miterlimit:4;stroke-dasharray:none;stroke-opacity:1" />
    <path
       id="path4147-6"
       d="m -312.93712,-131.7159 -0.59497,5.34908 c -0.37103,3.33751 -0.21913,9.73307 0.40349,17.00858 0.79594,9.30061 1.51318,13.187817 3.54499,19.209524 4.10977,12.180187 6.94043,22.794725 7.66072,28.729177 1.02507,8.445542 0.39037,19.679697 -1.74543,30.903016 -0.45768,2.405037 -0.84045,4.31787 -1.22256,5.951494 a 75.400531,14.829488 89.172125 0 0 -14.68757,-60.083196 75.400531,14.829488 89.172125 0 0 -3.99109,1.965902 c 1.86763,-14.751363 6.12425,-36.251377 8.81885,-43.890567 l 1.81357,-5.14301 z"
       style="fill:#333333;fill-opacity:1" />
  </g>
</svg>
