<?xml version="1.0" encoding="UTF-8" standalone="no"?>
<svg
   xmlns:dc="http://purl.org/dc/elements/1.1/"
   xmlns:cc="http://creativecommons.org/ns#"
   xmlns:rdf="http://www.w3.org/1999/02/22-rdf-syntax-ns#"
   xmlns:svg="http://www.w3.org/2000/svg"
   xmlns="http://www.w3.org/2000/svg"
   xmlns:xlink="http://www.w3.org/1999/xlink"
   version="1.1"
   id="svg14231"
   viewBox="0 0 443.95334 316.69288"
   height="316.69287"
   width="443.95334">
  <defs
     id="defs14233">
    <radialGradient
       gradientUnits="userSpaceOnUse"
       gradientTransform="matrix(1,0,0,0.99381505,0,2.4570141)"
       r="148.75929"
       fy="397.25677"
       fx="305.38269"
       cy="397.25677"
       cx="305.38269"
       id="radialGradient4441"
       xlink:href="#linearGradient4435" />
    <linearGradient
       id="linearGradient4435">
      <stop
         id="stop4437"
         offset="0"
         style="stop-color:#29abe2;stop-opacity:1;" />
      <stop
         id="stop4439"
         offset="1"
         style="stop-color:#29abe2;stop-opacity:0;" />
    </linearGradient>
    <clipPath
       clipPathUnits="userSpaceOnUse"
       id="clipEmfPath1">
      <path
         d="m 0,-37.1247 0,623.9207 708.295,0 0,-623.9207 -708.295,0 z"
         id="path4314" />
    </clipPath>
  </defs>
  <metadata
     id="metadata14236">
    <rdf:RDF>
      <cc:Work
         rdf:about="">
        <dc:format>image/svg+xml</dc:format>
        <dc:type
           rdf:resource="http://purl.org/dc/dcmitype/StillImage" />
        <dc:title></dc:title>
      </cc:Work>
    </rdf:RDF>
  </metadata>
  <g
     transform="translate(148.26126,-145.41078)"
     id="layer1">
    <path
       style="fill:url(#radialGradient4441);fill-opacity:1;fill-rule:nonzero;stroke:none"
       clip-path="url(#clipEmfPath1)"
       d="m 453.597,440.922 c -5.625,-5.1 -13.95,-6.225 -19.725,-11.4 -1.725,-1.575 -2.4,-4.65 -4.425,-6 -3.3,-2.175 -6.825,-1.125 -10.575,-2.175 -4.575,-1.275 -8.25,-5.55 -12.975,-7.95 -2.55,-1.2 -5.475,-0.9 -7.8,-1.95 -13.575,-6 -24.45,-18.375 -36.75,-23.325 -1.05,-3.975 -5.775,-6.45 -4.125,-11.55 0.9,0.15 1.95,0.075 2.925,0.075 2.175,-0.075 4.35,-0.15 5.475,1.2 -0.45,-8.175 2.85,-13.725 9.15,-17.25 7.275,1.2 18.45,4.425 25.275,0.9 -0.3,-5.1 -4.575,-4.95 -8.475,-4.725 -1.2,0.075 -2.25,0.15 -3.225,0.075 -10.575,-0.825 -23.925,-3.6 -24.225,-14.025 -0.975,-0.675 -1.875,-0.15 -2.925,0.375 -0.825,0.375 -1.8,0.75 -3,0.675 -3.375,-2.625 -2.25,-9.674 -0.9,-12.749 4.425,-10.5 24.975,-11.7 20.925,-23.4 -9,-3.225 -13.65,2.775 -18.75,8.85 -4.35,5.175 -9.075,10.275 -17.325,9.75 -4.874,-3.15 -10.949,-9.825 -3.975,-14.925 -0.525,-3.675 -5.624,-0.75 -6.224,-4.275 -1.425,-2.325 1.575,-1.575 0.75,-3.525 -1.05,0.075 -2.25,0.45 -2.25,-0.975 -3.15,-8.625 0.3,-23.4 -8.7,-22.2 -1.575,5.25 3.375,15 -6.225,14.7 -4.95,-6.075 -0.6,-13.35 -2.325,-20.7 0.825,-3.6 4.875,-13.5 -1.2,-14.7 -6.225,10.5 1.575,30.675 -8.85,38.25 -5.025,-3.225 -10.275,-13.95 -12.525,-20.85 -1.875,-5.775 -1.125,-24.6 -10.275,-27.375 -9.15,-2.7 -11.625,11.85 -9.75,18 3.075,9.975 18.675,12.45 21.825,23.325 0.825,2.7 1.5,8.55 0.825,12.075 -0.675,3.375 -5.475,13.425 -9.15,17.25 -4.5,4.575 -7.8,7.8 -14.775,8.7 -13.05,-4.125 -25.95,-5.25 -35.775,-13.95 -3.525,-3.15 -5.85,-9.9 -12.15,-7.35 -1.275,5.025 3.9,7.425 7.575,8.175 5.025,5.175 10.5,9.675 16.65,13.275 0.975,2.475 1.8,5.175 2.175,8.474 -1.95,3.075 -4.125,6 -3.525,10.8 -0.45,0.675 -1.2,0.6 -2.175,0.525 -0.9,0 -1.95,-0.075 -3.075,0.45 -1.2,1.425 -0.45,4.275 -2.475,5.175 -10.125,3.375 -18.375,2.7 -28.425,4.35 -4.95,0.825 -8.999,-0.375 -12.899,-1.575 -3.3,-0.975 -6.525,-1.95 -10.125,-1.8 -2.775,0.15 -5.1,0.15 -7.2,0.075 -4.2,-0.075 -7.425,-0.15 -11.55,1.275 -2.1,3 -0.9,6.075 1.5,8.55 10.875,0.225 16.35,6.825 26.4,3.45 2.325,-0.825 4.125,-3.3 6.825,-3.975 4.499,-1.05 9.449,-0.525 14.624,0.075 4.35,0.45 8.85,0.975 13.275,0.375 2.4,4.575 7.875,4.65 12.6,5.925 0,2.325 -1.575,2.625 0.15,4.725 1.425,1.05 4.2,0.075 5.1,1.8 -0.975,1.5 1.5,5.325 -1.875,5.1 -0.15,2.625 3.525,0.825 1.95,3.075 -4.35,6.75 -17.325,0.75 -20.4,7.725 2.475,3.825 6.975,2.25 11.325,0.6 4.2,-1.5 8.4,-3.075 10.575,0.225 -1.95,2.025 -7.2,1.875 -6.375,5.85 5.175,-0.15 7.35,-5.7 12.3,-6.9 1.575,-0.375 3.375,-0.15 5.175,0.075 1.5,0.225 3,0.375 4.425,0.225 1.2,-0.075 6.9,-3.825 8.1,-0.075 -0.375,0.15 -0.975,0 -1.575,-0.075 -1.05,-0.225 -2.175,-0.45 -2.4,0.75 0.6,0.075 1.125,0 1.725,0 1.65,-0.075 3.225,-0.15 3.9,1.05 -1.2,5.55 -5.775,8.625 -10.05,12 -11.025,19.575 -25.65,36.675 -40.725,53.4 -0.675,0.15 -0.9,-0.375 -1.425,-0.375 -0.15,-0.9 -0.6,-1.425 -1.05,-1.875 -3.075,0.6 1.05,1.35 1.125,2.475 -3.6,10.125 -13.275,15.449 -21.074,22.799 -8.25,7.8 -14.925,20.475 -22.5,29.85 -5.625,6.975 -10.5,14.625 -15.9,21.15 -2.475,2.925 -8.4,5.25 -3.675,10.125 5.175,-0.075 5.925,-5.7 7.95,-8.85 10.65,-16.95 26.85,-29.7 36.374,-47.25 6.9,-8.775 15.525,-15.825 22.8,-24.449 4.2,-4.875 7.2,-10.875 11.55,-15.6 6.6,-7.35 14.1,-13.725 19.275,-21.075 4.95,-7.05 13.575,-24.375 23.775,-19.2 -0.825,12.3 8.4,24.9 1.575,35.7 3.225,-1.05 1.5,-2.85 5.7,-2.325 2.325,-4.575 1.2,-11.55 4.8,-15.15 1.425,0.675 3.45,0.525 5.475,0.45 2.4,-0.15 4.8,-0.375 6.3,0.825 -3.975,10.8 -5.775,27 -0.45,39.525 2.7,-7.65 -3,-22.8 1.275,-30.825 1.575,0.3 2.55,1.275 4.875,0.525 3.975,-6.675 5.4,-15.075 12.075,-19.875 1.5,1.05 0.675,2.4 0.675,3.975 2.25,0.225 0.525,-2.325 2.325,-2.4 2.25,5.925 8.475,10.425 11.85,16.875 3.224,6.375 3.599,16.05 11.249,17.7 3.45,-7.275 -6.45,-13.5 -9.225,-21.45 -0.6,-1.725 0.15,-3.525 -0.3,-5.4 -1.049,-4.8 -5.774,-10.275 -2.549,-14.475 6.149,3.3 14.174,5.175 19.424,10.125 1.95,1.8 3.075,6.075 6.375,4.95 -6.375,-7.2 -11.7,-15.75 -18.825,-21.75 0.3,-14.4 12.75,-11.55 21.675,-7.95 3.375,1.425 6.75,1.8 8.55,2.55 3.075,1.35 5.625,4.95 8.7,6.6 5.25,2.925 10.725,4.35 13.425,7.125 1.725,1.65 2.175,4.35 3.825,6.075 2.175,2.25 6.525,3.45 9.825,5.775 3.975,2.625 7.125,6.675 10.35,8.325 2.625,1.35 5.775,0.75 8.475,1.875 8.925,3.675 16.35,11.175 24.525,11.925 2.1,-1.2 2.55,-3.6 1.5,-7.05 z"
       id="path4331"
       transform="matrix(1.4921868,0,0,1.0710718,-381.97259,-121.7333)" />
  </g>
</svg>
