<?xml version="1.0" encoding="UTF-8" standalone="no"?>
<svg
   xmlns:dc="http://purl.org/dc/elements/1.1/"
   xmlns:cc="http://creativecommons.org/ns#"
   xmlns:rdf="http://www.w3.org/1999/02/22-rdf-syntax-ns#"
   xmlns:svg="http://www.w3.org/2000/svg"
   xmlns="http://www.w3.org/2000/svg"
   xmlns:xlink="http://www.w3.org/1999/xlink"
   version="1.1"
   id="svg14828"
   viewBox="0 0 195.27678 188.63834"
   height="188.63834"
   width="195.27678">
  <defs
     id="defs14830">
    <linearGradient
       id="linearGradient15426">
      <stop
         id="stop15428"
         offset="0"
         style="stop-color:#ed1e79;stop-opacity:1;" />
      <stop
         id="stop15430"
         offset="1"
         style="stop-color:#ed1e79;stop-opacity:0;" />
    </linearGradient>
    <clipPath
       id="clipPath17014"
       clipPathUnits="userSpaceOnUse">
      <path
         id="path17016"
         d="M 0,4991.15 0,0 l 5666.26,0 0,4991.15 -5666.26,0 z" />
    </clipPath>
    <linearGradient
       gradientUnits="userSpaceOnUse"
       y2="3059.29"
       x2="5666.2598"
       y1="3059.29"
       x1="3371.1858"
       id="linearGradient15436"
       xlink:href="#linearGradient15426" />
    <linearGradient
       y2="3059.29"
       x2="5666.2598"
       y1="3059.29"
       x1="3371.1858"
       gradientUnits="userSpaceOnUse"
       id="linearGradient15438"
       xlink:href="#linearGradient15426" />
    <linearGradient
       y2="3059.29"
       x2="5666.2598"
       y1="3059.29"
       x1="3371.1858"
       gradientUnits="userSpaceOnUse"
       id="linearGradient15440"
       xlink:href="#linearGradient15426" />
    <linearGradient
       y2="3059.29"
       x2="5666.2598"
       y1="3059.29"
       x1="3371.1858"
       gradientUnits="userSpaceOnUse"
       id="linearGradient15442"
       xlink:href="#linearGradient15426" />
    <linearGradient
       y2="3059.29"
       x2="5666.2598"
       y1="3059.29"
       x1="3371.1858"
       gradientUnits="userSpaceOnUse"
       id="linearGradient15444"
       xlink:href="#linearGradient15426" />
    <linearGradient
       y2="3059.29"
       x2="5666.2598"
       y1="3059.29"
       x1="3371.1858"
       gradientUnits="userSpaceOnUse"
       id="linearGradient15446"
       xlink:href="#linearGradient15426" />
    <linearGradient
       y2="3059.29"
       x2="5666.2598"
       y1="3059.29"
       x1="3371.1858"
       gradientUnits="userSpaceOnUse"
       id="linearGradient15448"
       xlink:href="#linearGradient15426" />
    <linearGradient
       y2="3059.29"
       x2="5666.2598"
       y1="3059.29"
       x1="3371.1858"
       gradientUnits="userSpaceOnUse"
       id="linearGradient15450"
       xlink:href="#linearGradient15426" />
    <linearGradient
       y2="3059.29"
       x2="5666.2598"
       y1="3059.29"
       x1="3371.1858"
       gradientUnits="userSpaceOnUse"
       id="linearGradient15452"
       xlink:href="#linearGradient15426" />
    <linearGradient
       y2="3059.29"
       x2="5666.2598"
       y1="3059.29"
       x1="3371.1858"
       gradientUnits="userSpaceOnUse"
       id="linearGradient15454"
       xlink:href="#linearGradient15426" />
    <linearGradient
       y2="3059.29"
       x2="5666.2598"
       y1="3059.29"
       x1="3371.1858"
       gradientUnits="userSpaceOnUse"
       id="linearGradient15456"
       xlink:href="#linearGradient15426" />
    <linearGradient
       y2="3059.29"
       x2="5666.2598"
       y1="3059.29"
       x1="3371.1858"
       gradientUnits="userSpaceOnUse"
       id="linearGradient15458"
       xlink:href="#linearGradient15426" />
    <linearGradient
       y2="3059.29"
       x2="5666.2598"
       y1="3059.29"
       x1="3371.1858"
       gradientUnits="userSpaceOnUse"
       id="linearGradient15460"
       xlink:href="#linearGradient15426" />
    <linearGradient
       y2="3059.29"
       x2="5666.2598"
       y1="3059.29"
       x1="3371.1858"
       gradientUnits="userSpaceOnUse"
       id="linearGradient15462"
       xlink:href="#linearGradient15426" />
    <linearGradient
       y2="3059.29"
       x2="5666.2598"
       y1="3059.29"
       x1="3371.1858"
       gradientUnits="userSpaceOnUse"
       id="linearGradient15464"
       xlink:href="#linearGradient15426" />
    <linearGradient
       y2="3059.29"
       x2="5666.2598"
       y1="3059.29"
       x1="3371.1858"
       gradientUnits="userSpaceOnUse"
       id="linearGradient15466"
       xlink:href="#linearGradient15426" />
    <linearGradient
       y2="3059.29"
       x2="5666.2598"
       y1="3059.29"
       x1="3371.1858"
       gradientUnits="userSpaceOnUse"
       id="linearGradient15468"
       xlink:href="#linearGradient15426" />
    <linearGradient
       y2="3059.29"
       x2="5666.2598"
       y1="3059.29"
       x1="3371.1858"
       gradientUnits="userSpaceOnUse"
       id="linearGradient15470"
       xlink:href="#linearGradient15426" />
    <linearGradient
       y2="3059.29"
       x2="5666.2598"
       y1="3059.29"
       x1="3371.1858"
       gradientUnits="userSpaceOnUse"
       id="linearGradient15472"
       xlink:href="#linearGradient15426" />
    <linearGradient
       y2="3059.29"
       x2="5666.2598"
       y1="3059.29"
       x1="3371.1858"
       gradientUnits="userSpaceOnUse"
       id="linearGradient15474"
       xlink:href="#linearGradient15426" />
    <linearGradient
       y2="3059.29"
       x2="5666.2598"
       y1="3059.29"
       x1="3371.1858"
       gradientUnits="userSpaceOnUse"
       id="linearGradient15476"
       xlink:href="#linearGradient15426" />
  </defs>
  <metadata
     id="metadata14833">
    <rdf:RDF>
      <cc:Work
         rdf:about="">
        <dc:format>image/svg+xml</dc:format>
        <dc:type
           rdf:resource="http://purl.org/dc/dcmitype/StillImage" />
        <dc:title></dc:title>
      </cc:Work>
    </rdf:RDF>
  </metadata>
  <g
     transform="translate(213.57915,-261.68295)"
     id="layer1">
    <g
       style="fill:url(#linearGradient15436);fill-opacity:1"
       transform="matrix(0.08508517,0,0,-0.07461251,-500.41706,584.26342)"
       id="g17010">
      <g
         style="fill:url(#linearGradient15476);fill-opacity:1"
         id="g17012"
         clip-path="url(#clipPath17014)">
        <path
           d="m 4813.94,1795.17 c -45.11,0 -88.94,11.98 -122.21,41.51 -34.01,-4.24 -58.46,-20.31 -82.13,-37.34 3.62,4.51 7.28,9.01 10.93,13.51 36.41,131.2 121.06,261.3 129.82,382.59 0.32,4.41 0.23,9.14 -0.05,14.06 3.05,1.95 6.4,3.76 10.12,5.41 -0.87,7.55 -5.48,17.42 1.58,20.23 -4.15,6.77 -8.87,12.61 -14.09,17.63 0.66,13.65 4.08,26.29 14.26,35.6 -9.7,12.13 1.03,20.9 -12.04,33.59 20.9,21.79 19.39,63.85 -4.12,81.48 -18.23,-15.72 -16.42,-34.76 -9.02,-54.72 -5.82,-25.75 -12.74,-51.31 -20.18,-76.79 -17.13,6.36 -36.72,8.63 -57.69,8.63 -26.18,0 -54.5,-3.54 -82.82,-7.08 -28.32,-3.53 -56.65,-7.07 -82.83,-7.07 -8.79,0 -17.34,0.4 -25.58,1.33 -0.38,15.86 2.16,32.39 9.24,49.61 -8.43,7.17 -16.55,11.13 -24.84,13.57 -4.24,11.08 -9,18.93 -17.53,28.76 -0.71,5.26 -2.42,10.18 -5.26,14.38 38.9,35.05 59.25,81.33 84.16,124.86 11.92,-73.26 18,-144.54 58.19,-214.32 19.36,78.47 16.9,169.93 -35.19,250.6 8.97,12.45 18.98,24.26 30.68,35.06 -1.99,1.16 -4.23,1.65 -6.64,1.65 -6.12,0 -13.42,-3.13 -20.94,-6.27 -0.81,-0.33 -1.61,-0.66 -2.41,-0.99 1,3.24 1.7,6.53 1.5,9.97 -5.32,13.84 -10.37,27.71 -15.28,41.59 21.64,36.99 50.22,71.92 53.67,101.73 45.56,37.79 107.63,65.61 137.25,113.06 -66.23,-32.44 -155.66,-90.32 -214.23,-147.24 -30.43,88.16 -63.21,174.75 -130.16,252.4 l -11.95,-8.56 c 35.98,-78.13 58.67,-156.39 109.81,-228.89 -5.04,-9.73 -6.83,-19.95 -8.51,-30.2 3.52,-6.18 6.8,-12.35 9.87,-18.5 -5.89,-7.4 -11.03,-14.69 -15.31,-21.81 -0.29,0 -0.59,0 -0.89,0 -10.79,0 -21.4,-2.22 -31.6,-4.43 -10.2,-2.22 -19.98,-4.43 -29.09,-4.43 -12.6,0 -23.91,4.24 -33.27,18.58 10.31,-1.71 20.34,-3.74 31.65,-3.74 2.86,0 5.79,0.13 8.83,0.42 4.24,17.45 -21.41,26.84 -7.71,31.18 29.73,7.24 23.42,23.51 29.61,23.51 2.1,0 5.63,-1.86 12.46,-6.56 4.5,41.74 -66.04,29.38 -96.26,42.37 16.17,14.91 48.93,19.81 48.38,44.87 -29.7,-11.61 -70.76,-35.24 -114.68,-61.97 -8.72,20.92 -39.65,24.06 -47.48,45 -2.61,-5.1 -5.48,-8.03 -8.65,-9.69 6.39,20.59 15.36,40.73 13.41,55.66 18.65,25.41 47.13,47.8 56.29,76.15 -40.01,-33.76 -95.48,-96.17 -108.35,-138.45 -11.71,-2.79 -21.76,-10.64 -31.59,-12.75 0.05,2.89 0.94,5.88 2.46,8.96 0.07,0.02 0.14,0.05 0.21,0.07 0,0.11 0,0.22 0,0.33 9.53,18.7 41.56,40.63 44.8,63.55 -7.23,-2.74 -14.13,-3.49 -20.91,-3.49 -4.14,0 -8.22,0.28 -12.31,0.56 -4.08,0.28 -8.17,0.55 -12.3,0.55 -1.04,0 -2.08,-0.01 -3.13,-0.05 0.95,1.57 1.94,3.14 2.96,4.69 -0.76,0.22 -1.53,0.33 -2.3,0.33 -4.46,0 -9.25,-3.36 -14.25,-7.07 -1.83,-0.52 -3.67,-1.15 -5.54,-1.92 0.04,-0.68 0.06,-1.38 0.08,-2.08 -3.09,-2.15 -6.24,-4.04 -9.41,-5 5.39,5.07 9.84,10.43 7.83,17.79 -5.81,-4.14 -12.38,-9.62 -19.48,-16.04 -0.36,0.25 -0.72,0.53 -1.09,0.83 0.02,6.58 0.84,13.34 2.18,20.17 4.8,-2.09 9.58,-4.35 14.17,-7.7 17.52,24.07 9.92,21.02 35.14,32.71 0.71,-0.45 1.4,-0.95 2.08,-1.51 15.74,6.28 21.75,15.58 15.51,28.67 -2.05,3.34 -4.88,4.15 -7.95,4.15 -1.46,0 -2.97,-0.18 -4.48,-0.36 -1.51,-0.18 -3.02,-0.36 -4.48,-0.36 -4.03,0 -7.64,1.4 -9.62,8.08 -0.61,-1.52 -0.99,-2.81 -1.19,-3.92 -1.58,2.17 -3.47,4.38 -5.78,6.66 10.46,6.46 8.08,15.07 7.37,23.38 -0.12,0.16 -0.24,0.33 -0.36,0.49 4.73,15.32 6.04,31.68 18.01,44.75 5.84,0.75 11.47,1.02 16.93,1.02 6.23,0 12.24,-0.35 18.07,-0.69 5.82,-0.34 11.48,-0.69 17.01,-0.69 2.78,0 5.53,0.09 8.26,0.31 -6.77,-11.91 -11.29,-21.14 -12.39,-22.5 -0.08,-0.06 -0.16,-0.11 -0.23,-0.17 0,0 0.01,-0.01 0.02,-0.01 0.04,0 0.11,0.06 0.21,0.18 12.51,9.09 24.46,18.53 35.33,28.62 6.96,3.51 13.87,8.82 20.83,16.73 -0.63,1.06 -1.29,2.01 -1.99,2.86 9.55,11.28 17.62,23.45 23.65,36.85 -0.93,0.13 -1.87,0.19 -2.82,0.19 -14.91,0 -30.19,-14.89 -43.05,-32.23 -4.39,-1.15 -8.96,-2.91 -13.53,-4.67 -7.79,-3 -15.58,-5.99 -22.44,-5.99 -4.14,0 -7.95,1.09 -11.21,3.93 -0.66,5.82 -1.41,11.67 -2.21,17.54 3.74,6.47 6.85,13.13 9.09,20.05 -3.46,-2.92 -7.01,-6 -10.63,-9.23 -2.35,16.05 -5.01,32.19 -7.46,48.27 32.87,54.79 49.76,113.48 18.03,178.64 -7.34,0.76 -14.63,1.17 -21.89,1.17 -25.39,0 -50.44,-5.03 -76.23,-17.86 -42.83,11.96 -86.51,28.09 -114.27,52.55 -20.18,-6.43 -13.55,-21.14 -29.9,-28.71 -21.74,2.72 -43.21,5.95 -59.37,26.68 -13.36,-19.96 -29.77,-36.14 -47.54,-50.69 -31.38,25.92 -63.94,44.42 -99.47,45.22 -6.83,-20.51 17.62,-29.9 31.42,-43.82 -2.41,-8.46 -2.7,-16.5 -1.35,-24.12 -22.95,-3.62 -43.98,-11.97 -63.68,-29.41 -0.52,-4.85 -1.24,-9.73 -2.13,-14.65 -4.99,-1.26 -10.24,-4.1 -15.9,-9.48 1.85,-2.93 3.77,-5.41 5.77,-7.44 -7.72,-4.15 -14.68,-8.99 -21.49,-15.45 -2.47,3.65 -5.89,6.88 -10.87,9.65 0.35,11.35 -1.18,23.29 -5.89,36.21 -10.08,-20.58 -13.48,-43.22 -15.71,-66.21 -10.28,-3.26 -18.7,-8.83 -26.21,-15.52 -4.15,11.83 -9.14,22.5 -11.14,32.99 -3,-14.56 -3.18,-29.98 -1.55,-45.97 -0.44,-0.51 -0.89,-1.02 -1.34,-1.53 -1.99,11.1 -3.96,22.22 -5.88,33.35 -7.23,-10.63 -9.75,-24.1 -9.68,-39.15 -11.25,-15.47 -24.86,-28.01 -39.42,-39.43 -3.48,-0.96 -7.17,-1.66 -11.1,-2.06 -34.79,3.86 -46.58,26.17 -53.11,52.8 14.52,83.02 107.45,68.67 142.91,125.73 0.97,39.55 -12.73,67.29 -31.89,90.65 -0.5,2.25 -1.02,4.52 -1.55,6.8 23.8,-12.26 48.61,-23.44 75.17,-39.2 17.47,2.98 16.59,20.55 30.11,33.69 -17.57,53.93 -48.01,57.3 -81.98,66.15 1.01,0.12 2.1,0.3 3.29,0.56 -12.95,17.3 9.98,39.04 -10.72,43.56 5.92,-11.04 -7.34,-33.69 -1.89,-41.53 -4.54,1.35 -9.12,2.89 -13.73,4.74 -0.42,5.49 -1.02,11.04 -1.82,16.65 -4.44,5.49 -8.87,11.04 -13.26,16.7 24.36,59.66 41.85,127.86 76.74,174.4 1.3,36.43 -55.74,25.84 -90.49,33.24 -6.84,121.23 -117.7,142.42 -204.51,174.96 -0.6,32.21 9.99,41.49 25.48,41.49 16.81,0 39.37,-10.94 59.62,-15.39 26.47,65.6 -3.25,79.88 -21.07,131.63 4.69,152.26 118.95,168.53 179.91,251 -4.77,63.35 -44.55,98.53 -66.28,148.31 59.81,-12.46 42.84,-98.77 116.53,-118.43 4.24,-1.13 8.31,-1.64 12.26,-1.64 32.55,0.01 56.9,34.42 97.37,36.83 7.29,0.44 14.35,0.65 21.22,0.65 143.48,0 198.33,-91.83 294.22,-128.72 -7.32,-77.79 38.6,-182.43 91.16,-245.05 -22.44,-27.72 -42.4,-57.84 -57.53,-88.08 2.95,22.2 -24.4,45.61 -53.57,45.61 -3.6,0 -7.23,-0.36 -10.83,-1.12 l -20.03,27.92 c -2.79,-3.4 -5.18,-4.42 -7.4,-4.42 -1.71,0 -3.31,0.6 -4.92,1.21 -1.61,0.6 -3.22,1.21 -4.93,1.21 -1.38,0 -2.82,-0.39 -4.38,-1.5 22.18,-16.12 0.19,-8.23 -13.09,-15.36 28.3,-47.13 47.35,-55.77 84.49,-84.23 13.3,4.31 22.3,9.96 27.82,16.25 -42.69,-95.35 -33.53,-188.27 101.48,-207.18 8.23,-1.15 19.48,-1.69 32.45,-1.69 46.36,0 114.69,6.92 145.73,17.77 19.41,6.76 52.36,42.38 84.83,42.38 15.84,0 31.56,-8.47 45.53,-32.9 4,-0.94 7.58,-1.37 10.82,-1.37 28.56,0 30.36,33.33 52.28,41.58 -13.08,73.22 -39.5,143.55 9.72,198.81 3.15,0.29 6.11,0.42 8.92,0.42 49.84,0 46.61,-42.83 91.9,-46.56 6.1,-48.14 13.73,-95.08 19.83,-143.23 26.55,2.02 37,14.76 52.87,14.76 7.78,0 16.85,-3.06 29.75,-11.93 14.43,-16.71 6.06,-51.73 2.82,-82.57 9.06,-42.3 69.02,-43.54 124.11,-48.65 27.42,9.84 26.61,54.83 54.04,64.67 56.68,-26.28 38.97,-112.36 128.29,-112.36 7.38,0 15.49,0.59 24.43,1.84 11.83,24.88 41.92,27 42.39,66.01 91.92,-42.74 87.13,-163.36 151.79,-228.09 62.48,-19.87 102.16,-1.76 148.6,-39.47 -31.13,-80.96 -3.52,-151.6 23.91,-214.27 10.85,-3.8 21.05,-5.01 30.51,-5.01 8.16,0 15.76,0.9 22.76,1.79 7,0.9 13.39,1.79 19.11,1.79 8.38,0 15.33,-1.92 20.65,-8.58 -0.15,-52.52 -53.19,-39.46 -56.54,-88.01 -12.26,-41.64 20.33,-47.26 14.48,-83.83 l 104.61,-11.27 c 9.02,-64.01 -60.89,-29.86 -77.27,-62.25 -18.58,-68.02 42.51,-71.88 84.2,-91.39 -1.32,-46.7 -57.15,-25.69 -65.65,-63.47 -13.57,-49.85 27.96,-55.31 24.86,-96.73 -16.01,-41.61 -71.42,-34.39 -69.42,-98.34 -8.83,-53.16 35.62,-63.32 48.08,-99.32 -53.36,-32.6 -79.53,-132.88 -18.83,-174.31 -2.6,-2.49 -5.68,-3.57 -9.12,-3.57 -21,0 -55.62,40.31 -80.07,48.47 -91.03,-17.58 -69.88,-95.01 -53.64,-170.6 -24.2,8.79 -44.49,12.66 -61.55,12.66 -79.7,0 -88.7,-84.64 -94.22,-148.66 -5.4,-3.85 -10.11,-5.48 -14.36,-5.48 -22.21,0 -32.13,44.32 -63.25,49.08 -74.59,-4.08 -98.47,-71.02 -131.32,-126.96 -35.35,6.87 -49.53,30.86 -77.58,43.65 -41.27,-37.42 -115.34,-67 -186.25,-67 m -224.45,872.96 c -12.47,-17.07 9.48,-14.8 -26.56,-26.31 4.4,-19.04 19.11,-21 27.88,-32.8 23.85,3.23 35.31,13.95 31.23,34.13 -5.45,17.28 -31.5,0.46 -32.55,24.98 m 146.81,60.11 c -16.75,-28.85 -11.26,-61.35 8.73,-96.28 20.52,12.86 19.64,75.39 -8.73,96.28 m -494.81,46.58 c -4.23,-10.43 6.81,-6.43 -10.33,-17.03 4.75,-9.27 12.6,-8.38 18.65,-13.34 11.91,4.74 16.44,11.76 11.72,21.67 -1.55,2.52 -3.68,3.13 -6.01,3.13 -1.1,0 -2.24,-0.13 -3.38,-0.27 -1.14,-0.14 -2.28,-0.27 -3.37,-0.27 -3.05,0 -5.78,1.05 -7.28,6.11 m 475.93,47.25 c -1.43,0 -2.95,-0.59 -4.63,-2.11 11.59,-11.29 10.58,-20.47 16,-30.75 11.5,8.65 8.27,19.73 8.51,30.23 -2.43,-2.99 -4.54,-4.06 -6.47,-4.06 -2.42,0 -4.57,1.67 -6.71,3.34 -2.14,1.68 -4.28,3.35 -6.7,3.35 m -539.74,12.32 c -14.96,-5.72 -5.57,-24.42 5.05,-24.42 1.75,0 3.53,0.5 5.24,1.65 0.03,7.03 -2.41,14.46 -10.29,22.77 m -18.54,66.87 c 5.08,-8.83 9.16,-20.78 16.94,-20.78 1.49,0 3.12,0.43 4.92,1.42 2.04,10.76 -13.01,18.57 -21.86,19.36 m 337.99,34.75 c 5.67,-19.95 7.52,-46.04 25.22,-46.04 1.76,0 3.67,0.26 5.76,0.8 8.62,18.67 -15.23,39.76 -30.98,45.24 m -206.53,107.15 c 11.68,-30.04 20.04,-81.72 55.44,-81.72 3.39,0 7.02,0.47 10.92,1.48 -2.85,36.47 -31.3,76.36 -65.61,92.77 2.87,8.7 13.34,12.81 4.22,28.8 -0.39,0.04 -0.78,0.06 -1.16,0.06 -9.18,0 -14.13,-10.53 -15.18,-21.06 -1.05,-10.54 1.81,-21.07 8.25,-21.07 0.96,0 2,0.24 3.12,0.74 m 310.21,106.9 c -5.24,0 -11.16,-1.97 -17.36,-6.67 -2.75,-22.71 21.48,-11.27 29.65,-32.97 15.84,15.75 5.94,39.64 -12.29,39.64 m -743.64,401.14 c -64.76,-6.96 -101.63,-9.87 -147.91,-42.98 1.82,-54.08 -42.44,-80.34 -62.65,-121.12 46.15,-28.78 78.82,-79.88 120.84,-115.52 11.68,-1.84 23.18,-2.73 34.35,-2.74 121.31,-0.01 207.47,104.85 140.73,230.71 -30.61,13.7 -57.15,33.97 -85.36,51.65 m 607.5,-112.05 c -2.7,0 -5.47,-0.38 -8.24,-0.77 -1.54,-9.04 5.21,-18.49 13.76,-18.49 3.97,0 8.34,2.04 12.44,7.13 -5.03,9.86 -11.31,12.13 -17.96,12.13 m -439.74,174.39 c -9.31,-1.6 -14.54,-8.31 -14.1,-21.99 106.08,-3.14 104.12,-140.06 183.07,-140.06 4.28,0 8.8,0.41 13.59,1.26 -40.98,63.78 -110.12,157.18 -182.56,160.79 m -118.86,104.59 c -27.63,0 -55.65,-20.4 -47.84,-51.15 3.44,-13.57 24.71,-27.47 47.64,-27.47 17.17,0 35.27,7.79 47.52,29.35 -1.14,34.84 -24.1,49.27 -47.32,49.27 m -21.11,203.2 c -3.14,0 -6.31,-0.23 -9.53,-0.72 7.65,-10.59 14.83,-23.84 23.97,-25.06 -5.46,-4.93 -15.7,-9.11 -13.07,-15.39 24.32,-17.63 59.4,-17.35 89,-56.82 16.68,20.76 10.81,16.55 35.86,25.71 -42.38,22.2 -80.18,72.28 -126.23,72.28 m -40.44,16.9 c -2.76,0 -5.77,-1.18 -8.98,-4.02 13.76,-9.72 12.57,-23.91 21.43,-23.91 1.73,0 3.83,0.54 6.5,1.75 1.36,1.05 -6.17,26.18 -18.95,26.18 m -128.54,49.53 c -1.71,0 -3.63,-1.28 -5.91,-4.77 29.8,-33.44 48.72,-63.54 83.6,-63.54 8.8,0 18.62,1.91 29.89,6.18 -30.54,1.75 -14.88,32.72 -43.35,35.25 2.73,-5.13 8.76,-10.8 4.57,-14.8 -16.72,17.03 -39.22,13.86 -50.18,36.38 -2.28,-3.48 -4.2,-4.76 -5.91,-4.76 -2.4,0 -4.38,2.51 -6.36,5.03 -1.98,2.51 -3.96,5.03 -6.35,5.03 m -61.75,-2.61 -11.96,-8.57 c 11.62,-6.16 21.82,-21 34.45,-21 1.41,0 2.85,0.18 4.33,0.59 -8.72,11.13 -16.53,27.62 -26.82,28.98 m -32.48,-5.17 c -14.87,-4.56 -0.7,-13.94 3.45,-21.64 6.41,5.95 22.82,10.27 10.23,19.39 -3.89,-2.06 -8.09,-6.04 -11.62,-6.04 -1.14,0 -2.21,0.41 -3.17,1.44 2.25,1.98 4.27,3.99 1.11,6.85 m -130.04,29.77 c -5.64,0 -11.31,-0.77 -16.48,-2.11 1.62,-16.74 15.47,-35.23 31.29,-35.23 6.98,0 14.34,3.6 21.2,12.54 -3.52,18.28 -19.68,24.8 -36.01,24.8 M 4555.49,1812.02 c -1.39,1.72 -2.79,3.43 -4.21,5.13 0.91,0.3 1.8,0.47 2.66,0.47 1.38,0 2.69,-0.43 3.9,-1.44 -0.93,-1.28 -1.71,-2.67 -2.35,-4.16 m 0.6,14.97 c -6.57,13.97 11.24,23.92 2.81,38.2 -3.24,-1.64 -6.29,-2.1 -9.26,-2.1 -1.88,0 -3.72,0.18 -5.57,0.36 -1.84,0.19 -3.69,0.37 -5.56,0.37 -2.44,0 -4.94,-0.31 -7.55,-1.34 8.89,5.89 18.45,10.93 23.12,22.3 0.47,4.74 -0.07,8.71 -1.17,12.24 9.58,5.67 16.74,14.88 15.9,24.74 5.31,11.26 5.66,27.17 3.55,42.01 3.87,2.57 6.84,6.32 7.91,12.54 16.71,-8.35 35.39,-13.43 55.13,-16.77 -37.09,-46.63 -46.99,-94.85 -79.31,-132.55 m -27.36,15.22 c -3.23,3.38 -6.51,6.72 -9.82,10.03 2.29,2.82 4.95,5.16 7.78,7.27 3.32,-6.21 3.33,-11.86 2.04,-17.3 m 14.67,105.47 c -0.24,0.11 -0.49,0.22 -0.74,0.33 0.23,0.38 0.47,0.75 0.72,1.1 0.01,-0.47 0.02,-0.95 0.02,-1.43 m 99.54,20.87 c -21.54,22.54 -52.46,29.49 -87.63,29.49 -1.89,0 -3.79,-0.02 -5.7,-0.06 3.76,-3.7 7.71,-7.07 11.85,-10.15 -20.23,7.96 -38.83,17.17 -29.87,47.54 1,-0.15 2.02,-0.22 3.05,-0.22 8.2,0 17.32,4.41 22.61,10.75 2.73,0.36 5.41,0.79 7.91,1.45 -2.01,-9.21 -6.56,-17.99 -15.66,-26.03 7.74,-12.05 15.75,-22.4 25.46,-22.4 0.82,0 1.65,0.07 2.5,0.22 -9.94,28.58 21.7,50.28 -4.13,81.47 18.21,17.22 23.69,46.23 -0.67,59.84 -15.96,-20.12 -9.31,-43.97 -6.9,-67.11 l -19.29,2.54 c -1.96,1.04 -4.13,2.04 -6.54,3.02 l -3.27,-1.73 -20.31,2.67 c 3.99,21.74 -15.38,25.55 -7.48,50.23 2.66,28.95 34.15,20.42 34.96,51.77 -3.25,4.26 -7.65,5.42 -13.03,5.42 -3.15,0 -6.63,-0.4 -10.42,-0.8 -3.78,-0.39 -7.87,-0.79 -12.21,-0.79 -6.1,0 -12.71,0.78 -19.73,3.42 -0.98,2.4 -1.96,4.8 -2.94,7.23 19.49,1.66 39.02,2.43 58.27,2.43 3.12,0 6.25,-0.02 9.35,-0.06 1.49,-10.39 4.2,-20.98 6.37,-31.49 5.63,-0.01 10.84,-2.52 16.44,-2.52 3.76,0 7.69,1.12 12.04,4.86 1.3,9.06 1.03,18.37 -0.64,27.92 36.94,-2.19 71.9,-7.04 102.54,-13.61 -1.33,-4.31 -2.65,-8.62 -3.97,-12.93 -4.95,-0.89 -8.19,-2.82 -5.04,-8.6 0.8,-0.09 1.58,-0.17 2.35,-0.23 -14.98,-49.46 -28.7,-99.13 -36.82,-149.73 11.65,-10.12 1.54,-16.65 13.15,-26.76 -6.06,-5.63 -11.56,-11.32 -16.6,-17.05 m -380.27,473.06 c -8.42,0 -15.27,1.19 -20.97,3.28 -2.48,6.83 -8.75,16.32 -13.66,25 5.48,3.18 11.68,5.94 18.6,8.25 -1.18,3.82 -3.86,5.18 -7.35,5.18 -1.69,0 -3.57,-0.31 -5.57,-0.82 4.61,2.85 8.79,3.08 12.91,3.27 -8.89,6.84 -11.36,12.62 -11.32,17.99 15.31,9.46 34.21,16.77 52.01,24.74 0.39,0.08 0.78,0.17 1.17,0.26 1.51,-6.61 -8.33,-18.77 -13.94,-23 6.43,-5.99 13.24,-9.63 20.65,-9.63 6.64,0 13.76,2.92 21.51,9.7 -6.18,5.7 -11.48,16.69 -17.19,25.22 5.44,1.05 10.83,1.97 16.14,2.76 6.85,-10.08 11.61,-23.59 18.12,-34.23 -5.42,-6.78 -12.64,-15.69 -21.17,-25.02 -3.41,2.44 -7.1,4.66 -11.12,6.64 -0.81,-23.27 -18.8,-24.12 -26.21,-38.8 -4.55,-0.54 -8.75,-0.79 -12.61,-0.79 m -39.26,37.43 c -3.15,7.54 -3.06,13.01 5.31,13.01 0.44,0 0.91,-0.01 1.4,-0.05 -2.35,-2.95 -2.26,-6.31 1.17,-10.19 -2.37,-0.74 -4.85,-1.65 -7.33,-2.57 -0.18,-0.07 -0.36,-0.14 -0.55,-0.2 m -16.19,126.43 c -1.75,0 -3.5,0.12 -5.25,0.38 0.26,2.36 0.63,4.65 1.12,6.86 1.9,3.62 3.59,7.31 5.13,11.04 4.08,-5.27 8.47,-10.56 12.71,-16.04 -4.6,-1.41 -9.16,-2.24 -13.71,-2.24 m -98.68,11.22 c -6.15,8.56 -12.18,13.54 -24.73,21.3 1.12,1.57 2.21,3.15 3.25,4.74 10.87,8.87 20.78,16.59 21.45,24.99 1.69,1.42 3.32,2.86 4.86,4.33 1.15,-3.46 2.25,-7.68 3.63,-13.83 0.48,-0.12 0.98,-0.17 1.48,-0.17 1.93,0 3.98,0.75 6.04,1.5 0.57,0.21 1.15,0.42 1.72,0.61 1.61,-1.93 3.24,-3.82 4.93,-5.48 -4.34,-9.49 -12.04,-25.79 -22.63,-37.99 m 162.01,16.44 c -5.78,17.37 -8.99,32.92 -4.3,43.83 19.73,11.46 39.97,22.6 54.34,37.31 17.25,-15.79 23.98,-48.13 5.96,-77.77 -7.86,4.09 -15.52,5.78 -23,5.78 -11.38,0 -22.34,-3.89 -33,-9.15 m -167.21,38.3 c -0.47,0.07 -0.94,0.13 -1.42,0.18 1.72,4.3 3.29,8.65 4.75,13.02 0.23,0.12 0.46,0.24 0.71,0.35 0.95,-1.72 1.78,-3.24 2.52,-4.71 -1.07,-3.29 -3.29,-6.22 -6.56,-8.84 m -328.75,67.7 c -1.55,1.06 -3.08,2.31 -4.58,3.74 19.65,8.93 23.15,22.83 26.64,36.73 2.09,1.4 4.23,2.71 6.42,3.91 -5.45,-17.25 -13.5,-32.91 -28.48,-44.38 m 57.36,14.66 c 0.09,0.34 0.17,0.68 0.26,1.02 0.1,-0.2 0.2,-0.4 0.31,-0.6 -0.19,-0.14 -0.37,-0.28 -0.57,-0.42 m -10.38,24.78 c 0.05,4.19 0.65,8.3 1.67,12.37 1.18,0.22 2.37,0.41 3.56,0.57 -2.56,-4.06 -4.2,-8.41 -5.23,-12.94 m 13.8,9.62 c -0.31,1.26 -0.7,2.52 -1.18,3.79 2.04,0 4.1,-0.11 6.17,-0.34 -1.9,-1.02 -3.56,-2.18 -4.99,-3.45 m 28.93,16.7 c 0.02,0.79 0.02,1.58 -0.01,2.39 0.28,0.06 0.56,0.13 0.84,0.2 -0.27,-0.87 -0.55,-1.73 -0.83,-2.59"
           style="fill:url(#linearGradient15438);fill-opacity:1;fill-rule:nonzero;stroke:none"
           id="path17018" />
        <path
           d="m 4518.91,1852.24 c -28.25,28.26 -58.96,54.54 -87.01,83 -2.68,-0.09 -5.3,-0.26 -7.87,-0.49 -3.05,3.69 -6.31,7.06 -9.33,9.92 -4.06,77.07 20.4,158.14 -31.84,216.53 l 19.9,14.28 c -0.3,2.58 -0.67,5.12 -1.1,7.62 27.26,6.53 55.51,10.81 83.84,13.22 0.98,-2.43 1.96,-4.83 2.94,-7.23 7.02,-2.64 13.63,-3.42 19.73,-3.42 4.34,0 8.43,0.4 12.21,0.79 3.79,0.4 7.27,0.8 10.42,0.8 5.38,0 9.78,-1.16 13.03,-5.42 -0.81,-31.35 -32.3,-22.82 -34.96,-51.77 -7.9,-24.68 11.47,-28.49 7.48,-50.23 l 20.31,-2.67 -17.88,-9.44 c -4.77,-21.79 2.78,-30.89 12.81,-32.36 -8.96,-30.37 9.64,-39.58 29.87,-47.54 0.28,-0.21 0.57,-0.43 0.85,-0.64 -7.11,-5.88 -12.22,0.52 -19.56,-6.93 0,-10.34 0.43,-20.76 0.63,-31.15 -0.25,-0.35 -0.49,-0.72 -0.72,-1.1 -0.84,0.36 -1.7,0.73 -2.58,1.08 l -27.97,-14.77 c -6.94,-31.69 5.82,-43.09 20.97,-43.09 6.63,0 13.72,2.18 19.83,5.79 1.1,-3.53 1.64,-7.5 1.17,-12.24 -4.67,-11.37 -14.23,-16.41 -23.12,-22.3 -1.47,-0.58 -2.98,-1.38 -4.53,-2.49 0.09,-0.16 0.18,-0.32 0.26,-0.48 -2.83,-2.11 -5.49,-4.45 -7.78,-7.27 m -84.77,176.41 c -2.29,0 -3.75,-0.22 -4.15,-0.68 35.47,-11.38 68.63,-26.69 107.18,-33.07 -19.41,20.83 -85.56,33.75 -103.03,33.75 m -105.23,-122.28 c 5.16,6.61 10.31,13.12 14.4,20.04 3.57,-4.2 7.17,-8.29 10.78,-12.19 -8.09,-2.99 -16.37,-5.75 -25.18,-7.85 m -38.01,41.55 c -0.5,10.57 -1.94,20.39 -7.57,26.82 -5.63,1.32 -11.3,2.44 -17.03,3.39 -4.82,12.63 -9.64,25.49 -13.08,38.13 6.16,-6.84 12.24,-13.96 18.23,-21.37 9.39,-1.03 19.45,-8.57 29.98,-19.28 -2.21,-9.87 -5.74,-19.24 -10.53,-27.69 m 281.46,15.85 c -0.98,6.92 -2.5,13.6 -4.3,19.48 3.93,-2.54 8.01,-4.84 12.21,-6.94 -1.07,-6.22 -4.04,-9.97 -7.91,-12.54 m -188.07,35.6 c -1.78,4.81 -4.13,6.21 -6.71,6.21 -1.77,0 -3.65,-0.66 -5.53,-1.32 -1.88,-0.65 -3.76,-1.31 -5.53,-1.31 -2.08,0 -4.01,0.91 -5.61,3.78 13.37,4.14 9.96,14.36 5.77,14.36 -1.87,0 -3.88,-2.02 -4.64,-7.52 -1.1,13.09 -9.52,24.06 -19.65,32.62 15.94,-2.67 31.66,-5.73 46.69,-9.9 -4.74,-11.8 -2.71,-24.71 -4.79,-36.92 m 172.96,46.53 c 7.06,8.48 7.25,20.43 -10.78,29.98 l 19.29,-2.54 c 0.92,-8.85 1.22,-17.59 -0.6,-25.99 -2.5,-0.66 -5.18,-1.09 -7.91,-1.45 m -187.24,6.3 c -17.29,5.89 -36.18,9.15 -54.94,12.61 10.89,13.97 3.89,34.09 -7.9,42.13 -11.26,-14.03 -13,-29.96 -5.99,-39.47 -8.7,1.75 -17.28,3.7 -25.57,6.14 -9.93,7.64 -19.88,15.03 -29.72,22.3 4.92,2.24 8.46,5.48 8.29,9.19 -0.19,-0.04 -0.4,-0.06 -0.61,-0.06 -1.16,0 -2.64,0.55 -4.3,1.37 23.49,22.49 51.75,40.17 82.91,53.77 24.91,-33.4 57.98,-66.24 37.83,-107.98 m 97.88,215.54 c -14.51,1.64 -28.02,4.95 -40.09,10.64 15.58,2.95 30.25,6.47 35.82,15.4 -4.66,16.57 -7.82,27.96 -11.33,37.14 8.29,-2.44 16.41,-6.4 24.84,-13.57 -7.08,-17.22 -9.62,-33.75 -9.24,-49.61 m -160.01,1.84 c -24.52,0 -51.05,13.73 -64.52,41.39 12.01,-3.45 20.27,-10.6 29.15,-25.81 8.56,2.25 17.01,3.19 25.36,3.23 4.65,-3.53 8.24,-13.57 12.61,-18.76 -0.86,-0.03 -1.73,-0.05 -2.6,-0.05 m 9.23,0.67 c 7.51,5.68 2.12,12.01 -2.64,17.18 6.11,-0.7 12.17,-1.74 18.19,-2.93 2.05,-2.38 3.9,-4.59 5.49,-6.74 -6.28,-3.89 -13.46,-6.4 -21.04,-7.51 m 5.14,58.22 c -13.43,2.15 -27.01,3.82 -40.59,5.47 -1.49,12.64 -13.54,27.01 -1.18,37.37 10.27,-26.61 22.33,-30.23 42.25,-42.13 -0.16,-0.23 -0.32,-0.47 -0.48,-0.71 m -104.29,14.97 c -3.86,0.8 -7.7,1.66 -11.51,2.6 7.99,12.26 11.77,20.96 19.29,20.96 3.61,0 8.08,-2.01 14.3,-6.6 -12.48,-11.85 -11.12,-11.25 -22.08,-16.96 m 99.72,3.33 c -0.65,0 -1.43,0.34 -2.41,1.21 0.45,4.78 -0.24,8.79 -1.65,12.44 3.87,-1.64 7.86,-3.06 12.03,-4.2 0.3,-2.09 0.46,-4.25 0.46,-6.51 -1.3,1.4 -2.28,1.93 -3.06,1.93 -1.19,0 -1.92,-1.22 -2.66,-2.44 -0.74,-1.22 -1.49,-2.43 -2.71,-2.43 m -58.81,45.26 c 0.47,0.87 0.87,1.78 1.18,2.75 0.64,-0.12 1.28,-0.24 1.92,-0.35 0.38,-0.29 0.77,-0.57 1.15,-0.86 -1.43,-0.55 -2.85,-1.06 -4.25,-1.54 m -30.32,31.1 c -0.05,0 -0.1,0 -0.16,0 -6.92,3.25 -14.39,4.7 -22.16,5.22 -2.69,1.33 -5.37,2.93 -8.02,4.83 2.28,7.61 5.82,14.46 10.66,20.53 10.01,-1.2 19.82,-6.65 33.87,-12.97 l 0,0 c -0.11,1.22 -0.48,2.62 -1.04,4.15 5.7,-2.09 12.55,-3.28 20.97,-3.28 3.86,0 8.06,0.25 12.61,0.79 7.41,14.68 25.4,15.53 26.21,38.8 4.02,-1.98 7.71,-4.2 11.12,-6.64 -22.19,-24.28 -53.19,-51.43 -84.06,-51.43"
           style="fill:url(#linearGradient15440);fill-opacity:1;fill-rule:nonzero;stroke:none"
           id="path17020" />
        <path
           d="m 4552.91,1897.02 c -1.12,3.57 -2.82,6.7 -4.67,9.71 10.16,1.05 16.68,6.8 20.57,15.03 0.84,-9.86 -6.32,-19.07 -15.9,-24.74 m -10.47,19.34 c -3.45,6.66 -5.44,14.44 -1.85,26.5 0.49,1.98 1.19,3.68 2.07,5.15 0.25,-0.11 0.5,-0.22 0.74,-0.33 0.18,-10.52 0.09,-21 -0.96,-31.32 m -469.61,685.44 c -1.02,0.28 -2.06,0.63 -3.11,1.04 0.54,11.64 6.73,21.54 19.21,29.5 -0.83,1.36 -1.91,1.9 -3.15,1.9 -4.66,0 -11.66,-7.62 -16.58,-8.47 0.03,0.2 0.07,0.39 0.1,0.58 5.24,6.04 11.65,11.39 17.76,16.38 -1.04,-1.59 -2.13,-3.17 -3.25,-4.74 12.55,-7.76 18.58,-12.74 24.73,-21.3 -2.8,-3.22 -5.8,-6.15 -8.98,-8.6 -9.13,-3.3 -18.16,-5.6 -26.73,-6.29 m 29.09,69.81 c -1.71,0.18 -3.45,0.25 -5.19,0.25 -0.14,0 -0.28,-0.01 -0.42,-0.01 1.7,4.81 3.89,9.45 10.36,12.78 -1.46,-4.37 -3.03,-8.72 -4.75,-13.02 m -52.57,20.93 c -0.64,4.58 -0.31,8.87 0.77,12.92 2.74,3.33 5.38,6.8 7.77,10.48 2.39,-4.76 7.45,-8.12 13.29,-9.85 -6.96,-6.7 -13.78,-12.77 -21.83,-13.55 m -21.82,19.63 c 2.45,4.63 5.65,8.77 10.07,12 -3.13,-4.72 -6.35,-9.13 -10.07,-12 m 82.21,12.31 c -2.24,0.53 -4.38,0.78 -6.43,0.78 -1.3,0 -2.57,-0.1 -3.81,-0.29 2.45,4.07 5.6,8.03 9.38,11.88 0.81,-1.15 1.71,-1.84 2.64,-2.3 -0.14,-3.25 -0.71,-6.63 -1.78,-10.07 m -336.52,13.63 c -1.56,1.38 -3.13,2.75 -4.72,4.1 0.52,0.21 1.02,0.43 1.51,0.66 1.5,-1.43 3.03,-2.68 4.58,-3.74 -0.45,-0.35 -0.91,-0.69 -1.37,-1.02 m 320.5,11.03 c -2.49,0 -5.14,0.24 -7.97,0.77 4.2,4.48 7.99,9.09 10.85,13.98 4.44,-2.4 8.33,-6.43 11.03,-11.54 -3.88,-2.03 -8.5,-3.21 -13.91,-3.21 m -21.77,5.07 c -2.78,1.17 -5.68,2.56 -8.71,4.19 2.3,18.36 -2.54,37.87 3.95,55.52 4.23,2.08 8.83,4.02 13.93,5.53 7.52,-6.85 15.67,-9.85 23.75,-13.35 -1.34,-6.83 -2.16,-13.59 -2.18,-20.17 0.37,-0.3 0.73,-0.58 1.09,-0.83 -9.82,-8.89 -20.65,-19.56 -31.83,-30.89 m 37.08,17.14 c -1.77,0 -3.44,0.1 -4.97,0.35 2.76,4.2 7.33,7.84 11.37,11.65 3.17,0.96 6.32,2.85 9.41,5 0.11,-5.18 -0.52,-10.63 -2.02,-15.77 -4.87,-0.65 -9.62,-1.23 -13.79,-1.23 m 21.27,21 c 5,3.71 9.79,7.07 14.25,7.07 0.77,0 1.54,-0.11 2.3,-0.33 -1.02,-1.55 -2.01,-3.12 -2.96,-4.69 -4.44,-0.17 -8.95,-0.74 -13.59,-2.05 m 25.96,37.25 c -0.68,0.56 -1.37,1.06 -2.08,1.51 1.77,0.82 3.7,1.71 5.81,2.69 -7.73,11.09 -7.77,20.9 -15.94,32.06 0.2,1.11 0.58,2.4 1.19,3.92 1.98,-6.68 5.59,-8.08 9.62,-8.08 1.46,0 2.97,0.18 4.48,0.36 1.51,0.18 3.02,0.36 4.48,0.36 3.07,0 5.9,-0.81 7.95,-4.15 6.24,-13.09 0.23,-22.39 -15.51,-28.67 m 37.47,152.82 c -0.5,3.6 -1.01,7.21 -1.54,10.82 3.62,3.23 7.17,6.31 10.63,9.23 -2.24,-6.92 -5.35,-13.58 -9.09,-20.05 m -539.47,101.37 c 2.23,22.99 5.63,45.63 15.71,66.21 4.71,-12.92 6.24,-24.86 5.89,-36.21 -0.06,0.03 -0.11,0.06 -0.17,0.09 -9.3,-9.24 -10.91,-18.67 -8,-27.33 -4.82,-0.49 -9.28,-1.44 -13.43,-2.76 m 76.52,45.8 -5.56,7.75 c -0.02,0 -0.05,0 -0.08,0 -2.22,0 -4.48,-0.25 -6.79,-0.83 0.89,4.92 1.61,9.8 2.13,14.65 19.7,17.44 40.73,25.79 63.68,29.41 1.36,-7.72 4.39,-15.01 8.6,-21.9 -9.95,-7.21 -19.75,-14.63 -29.16,-22.57 -0.61,-1.4 -0.86,-2.91 -0.84,-4.5 -4.57,1.63 -9.15,3.25 -13.77,4.75 -6.6,-2.43 -12.63,-4.62 -18.21,-6.76"
           style="fill:url(#linearGradient15442);fill-opacity:1;fill-rule:nonzero;stroke:none"
           id="path17022" />
        <path
           d="m 4533.08,1891.23 c -15.15,0 -27.91,11.4 -20.97,43.09 l 27.97,14.77 c 0.88,-0.35 1.74,-0.72 2.58,-1.08 -0.88,-1.47 -1.58,-3.17 -2.07,-5.15 -3.59,-12.06 -1.6,-19.84 1.85,-26.5 -0.33,-3.23 -0.75,-6.44 -1.29,-9.63 1.26,-0.11 2.48,-0.17 3.65,-0.17 1.19,0 2.34,0.06 3.44,0.17 1.85,-3.01 3.55,-6.14 4.67,-9.71 -6.11,-3.61 -13.2,-5.79 -19.83,-5.79 m -271.11,503.2 c -0.64,0.11 -1.28,0.23 -1.92,0.35 0.09,0.29 0.18,0.58 0.25,0.88 0.56,-0.41 1.12,-0.82 1.67,-1.23"
           style="fill:url(#linearGradient15444);fill-opacity:1;fill-rule:nonzero;stroke:none"
           id="path17024" />
        <path
           d="m 4271.74,2537.13 c 4.4,6.06 7.74,12.75 13.06,18.25 7.31,0.45 14.39,0.71 21.17,0.77 0.19,-0.2 0.36,-0.4 0.51,-0.6 -1.99,-3.07 -4.59,-5.77 -7.77,-8.12 -2.71,-0.98 -5.18,-2.04 -5.9,-3.63 -1.27,-0.66 -2.61,-1.27 -4,-1.85 -1.28,0.57 -2.59,0.88 -3.96,0.88 -0.23,0 -0.46,-0.01 -0.69,-0.03 0.44,-0.73 0.86,-1.47 1.14,-2.19 -4.08,-1.42 -8.61,-2.58 -13.56,-3.48 m -68.65,75.58 c 0.97,4.35 2.37,8.45 4.15,12.3 0.32,-0.42 0.65,-0.84 0.98,-1.26 -1.54,-3.73 -3.23,-7.42 -5.13,-11.04 m -373.81,139.2 c -5.63,9.4 -7.8,18.19 -7.71,26.66 1.03,4.53 2.67,8.88 5.23,12.94 2.43,0.31 4.88,0.47 7.37,0.47 0.01,0 0.01,0 0.02,0 0.48,-1.27 0.87,-2.53 1.18,-3.79 -9.62,-8.57 -8.85,-22.16 -3.16,-33.38 -0.09,-0.34 -0.17,-0.68 -0.26,-1.02 -0.87,-0.65 -1.76,-1.28 -2.67,-1.88 m 30.07,39.52 c -1.55,4.81 -3.98,9.6 -7.46,14.36 4.21,0.11 8.33,0.52 12.4,1.49 0.03,-0.81 0.03,-1.6 0.01,-2.39 -1.5,-4.61 -3.13,-9.11 -4.95,-13.46"
           style="fill:url(#linearGradient15446);fill-opacity:1;fill-rule:nonzero;stroke:none"
           id="path17026" />
        <path
           d="m 4292.81,2543.8 c 0.72,1.59 3.19,2.65 5.9,3.63 -1.78,-1.32 -3.75,-2.53 -5.9,-3.63 m -8.01,11.58 c 2.51,2.59 5.47,4.92 9.18,6.8 0.14,0.01 0.28,0.02 0.42,0.04 -0.01,0.05 -0.02,0.1 -0.03,0.15 4.29,2.09 9.57,3.58 16.32,4.18 -0.69,-4.09 -2.11,-7.75 -4.21,-11 -0.15,0.2 -0.32,0.4 -0.51,0.6 -6.78,-0.06 -13.86,-0.32 -21.17,-0.77"
           style="fill:url(#linearGradient15448);fill-opacity:1;fill-rule:nonzero;stroke:none"
           id="path17028" />
        <path
           d="m 4228.39,2423.13 c -7.44,0.02 -14.86,1.62 -22.16,5.22 7.77,-0.52 15.24,-1.97 22.16,-5.22"
           style="fill:url(#linearGradient15450);fill-opacity:1;fill-rule:nonzero;stroke:none"
           id="path17030" />
        <path
           d="m 4287.32,2528.5 c 0.37,0.16 0.74,0.33 1.11,0.49 0.02,-0.08 0.04,-0.15 0.06,-0.23 -0.39,-0.09 -0.78,-0.18 -1.17,-0.26 m 12.2,2.55 c -0.54,0.81 -1.09,1.6 -1.63,2.35 4.39,2.14 8.65,4.36 12.71,6.7 1.82,-1.87 3.49,-3.99 5.06,-6.29 -5.31,-0.79 -10.7,-1.71 -16.14,-2.76"
           style="fill:url(#linearGradient15452);fill-opacity:1;fill-rule:nonzero;stroke:none"
           id="path17032" />
        <path
           d="m 4354.09,1914.22 c -3.61,3.9 -7.21,7.99 -10.78,12.19 3.45,5.84 6.14,11.99 7.44,18.75 3.26,-9.05 7.73,-10.69 12.47,-10.69 1.35,0 2.72,0.13 4.1,0.27 1.37,0.13 2.75,0.27 4.1,0.27 1.92,0 3.81,-0.27 5.58,-1.2 0.27,-3.64 0.51,-7.15 0.72,-10.56 -7.93,-2.95 -15.69,-6.1 -23.63,-9.03 m 61.39,19.49 c -0.34,3.64 -0.59,7.29 -0.78,10.96 3.02,-2.86 6.28,-6.23 9.33,-9.92 -2.92,-0.26 -5.77,-0.61 -8.55,-1.04 m -114.05,41.9 c -10.53,10.71 -20.59,18.25 -29.98,19.28 -5.99,7.41 -12.07,14.53 -18.23,21.37 -4.41,16.2 -6.56,32.05 -3.53,46.6 5.41,-1.41 10.91,-2.68 16.46,-3.86 -7.32,-4.89 -12.25,-13.93 -5.6,-21.66 3.24,-2.53 6.2,-3.6 8.81,-3.6 8.91,0 13.76,12.51 11.92,22.29 4.78,-0.87 9.6,-1.69 14.44,-2.48 -0.59,-1.22 -1.1,-2.62 -1.56,-4.2 10.37,-23.59 12.59,-50.09 7.27,-73.74 m -25.82,98 c -14.47,4.26 -28.04,10.02 -39.76,18.82 0.21,0.25 0.42,0.49 0.64,0.73 3.29,0.51 6.57,1.46 9.4,2.75 9.84,-7.27 19.79,-14.66 29.72,-22.3 m 57.05,210.89 c -6.02,1.19 -12.08,2.23 -18.19,2.93 -3.43,3.72 -6.53,6.85 -4.24,8.7 1.15,-1.13 2.12,-1.61 2.97,-1.61 2.34,0 3.7,3.65 5,7.32 5.35,-7.05 10.32,-12.54 14.46,-17.34 m -60.15,0.66 c -8.88,15.21 -17.14,22.36 -29.15,25.81 -0.66,1.36 -1.29,2.75 -1.89,4.18 8.45,4.85 17.16,10.14 15.72,21.35 5.25,-10.77 13.47,-3.46 18.24,-17.08 5.63,4.26 6.85,9.24 6.23,14.52 13.58,-1.65 27.16,-3.32 40.59,-5.47 -4.04,-6.1 -5.5,-12.6 -9.76,-18.66 -1.08,3.73 -3.84,5.11 -7.17,5.11 -8.95,0 -22.08,-9.98 -18.45,-11.45 1.97,0.13 3.67,0.19 5.12,0.19 15.51,0 3.05,-7.12 -0.53,-14.99 1.08,0.69 2.09,0.99 3.05,0.99 1.19,0 2.3,-0.47 3.36,-1.27 -8.35,-0.04 -16.8,-0.98 -25.36,-3.23 m -59.52,55.69 c -2.85,0.72 -5.74,1.39 -8.58,2.13 0.71,1.04 1.39,2.06 2.04,3.06 3.81,-0.94 7.65,-1.8 11.51,-2.6 -1.43,-0.74 -3.06,-1.59 -4.97,-2.59 m -11.79,3.01 c -2.12,0.6 -4.21,1.27 -6.23,2.04 1.16,0.56 2.18,0.84 3.03,0.84 1.64,0 2.71,-1.01 3.2,-2.88"
           style="fill:url(#linearGradient15454);fill-opacity:1;fill-rule:nonzero;stroke:none"
           id="path17034" />
        <path
           d="m 4534.64,2035.15 c -1.03,0 -2.05,0.07 -3.05,0.22 0.02,0.07 0.04,0.14 0.06,0.21 4.59,8.58 15.44,9 25.6,10.32 -5.29,-6.34 -14.41,-10.75 -22.61,-10.75 m 11.83,40.73 -9.81,1.29 3.27,1.73 c 2.41,-0.98 4.58,-1.98 6.54,-3.02"
           style="fill:url(#linearGradient15456);fill-opacity:1;fill-rule:nonzero;stroke:none"
           id="path17036" />
        <path
           d="m 4531.59,2035.37 c -10.03,1.47 -17.58,10.57 -12.81,32.36 l 17.88,9.44 9.81,-1.29 c 18.03,-9.55 17.84,-21.5 10.78,-29.98 -10.16,-1.32 -21.01,-1.74 -25.6,-10.32 -0.02,-0.07 -0.04,-0.14 -0.06,-0.21"
           style="fill:url(#linearGradient15458);fill-opacity:1;fill-rule:nonzero;stroke:none"
           id="path17038" />
        <path
           d="m 4043.69,2607.83 c -2.61,1.6 -5.08,3.54 -7.42,5.85 1.19,0.32 2.4,0.68 3.61,1.08 1.44,-2.36 2.71,-4.67 3.81,-6.93 m 118.16,32.74 c 0.96,3.26 1.09,6.65 -3.81,10.87 -25.41,0.84 -15.95,22.05 -21.71,38.71 -2.3,-2.1 -4.39,-2.96 -6.34,-2.96 -4.32,0 -7.95,4.21 -11.57,8.42 -2.1,2.44 -4.21,4.89 -6.45,6.51 2.66,9.56 5.06,19.19 7.6,28.78 13.18,-11.33 -2.48,-17.89 8.18,-28.8 0.03,0 0.06,0 0.08,0 7,0 14.39,2.44 22.68,10.31 -3.89,3.62 -5.5,7.47 -5.44,11.51 9.83,2.11 19.88,9.96 31.59,12.75 12.87,42.28 68.34,104.69 108.35,138.45 -9.16,-28.35 -37.64,-50.74 -56.29,-76.15 1.95,-14.93 -7.02,-35.07 -13.41,-55.66 -3.44,-1.8 -7.24,-2.11 -11.43,-2.11 -1.1,0 -2.23,0.02 -3.39,0.04 -1.15,0.02 -2.34,0.05 -3.56,0.05 -2.1,0 -4.29,-0.07 -6.57,-0.31 18.04,-19.37 -22.36,-29.12 -21.57,-45.63 6.73,-16.04 16.48,-13.66 25.11,-18.21 -2.59,-6.66 -3.35,-12.84 -2.78,-18.71 -8.35,-5.14 -16.61,-10.2 -24.74,-15.12 -1.48,-0.89 -2.99,-1.81 -4.53,-2.74 m -55.18,44.06 c 0.11,0.34 0.22,0.68 0.34,1.02 0.12,-0.23 0.24,-0.45 0.37,-0.67 -0.25,-0.11 -0.48,-0.23 -0.71,-0.35"
           style="fill:url(#linearGradient15460);fill-opacity:1;fill-rule:nonzero;stroke:none"
           id="path17040" />
        <path
           d="m 4067.6,2601.58 c -8.66,0 -16.76,1.86 -23.91,6.25 -1.1,2.26 -2.37,4.57 -3.81,6.93 -1.21,-0.4 -2.42,-0.76 -3.61,-1.08 -5.12,5.05 -9.55,11.89 -13.09,20.83 -1.54,3.92 -2.59,7.6 -3.22,11.07 13.42,-12.61 1.59,-16.05 19.61,-30.83 8.18,4.52 5.58,10.81 13.1,15.41 -10.97,9.75 -17.67,24.32 -31.95,33.95 4.4,15.55 17.8,27.25 29.4,41.35 -1.08,-4.05 -1.41,-8.34 -0.77,-12.92 8.05,0.78 14.87,6.85 21.83,13.55 3.04,-0.9 6.29,-1.37 9.5,-1.37 4.66,0 9.22,0.99 12.86,3.05 0.59,5.95 2.64,11.68 5.96,17.2 1.24,0.19 2.51,0.29 3.81,0.29 2.05,0 4.19,-0.25 6.43,-0.78 1.07,3.44 1.64,6.82 1.78,10.07 2.32,-1.16 4.88,-0.92 7.06,-2.83 0.35,-0.27 0.68,-0.55 0.99,-0.82 -2.54,-9.59 -4.94,-19.22 -7.6,-28.78 -1.61,1.17 -3.3,1.9 -5.1,1.9 -2.31,0 -4.81,-1.19 -7.61,-4.23 3.3,-6.25 5.78,-10.62 7.75,-14.14 -0.12,-0.34 -0.23,-0.68 -0.34,-1.02 -6.47,-3.33 -8.66,-7.97 -10.36,-12.78 -1.81,-0.01 -3.64,-0.08 -5.43,-0.15 -1.93,-0.08 -3.83,-0.16 -5.65,-0.16 -8.33,0 -15.17,1.62 -16.73,12.22 -17.43,-9.19 -13.55,-6.4 -27.89,-19.98 23.15,-14.27 10.42,-22.35 24.58,-42.7 1.26,1.81 2.64,3.57 4.11,5.27 -0.03,-0.19 -0.07,-0.38 -0.1,-0.58 4.92,0.85 11.92,8.47 16.58,8.47 1.24,0 2.32,-0.54 3.15,-1.9 -12.48,-7.96 -18.67,-17.86 -19.21,-29.5 1.05,-0.41 2.09,-0.76 3.11,-1.04 -1.76,-0.15 -3.5,-0.22 -5.23,-0.22"
           style="fill:url(#linearGradient15462);fill-opacity:1;fill-rule:nonzero;stroke:none"
           id="path17042" />
        <path
           d="m 4111.2,2612.79 c -0.9,1.39 -1.78,2.68 -2.66,3.9 10.59,12.2 18.29,28.5 22.63,37.99 -1.69,1.66 -3.32,3.55 -4.93,5.48 1.47,0.5 2.92,0.88 4.31,0.88 2.67,0 5.09,-1.42 6.97,-6.24 -2.66,-8.93 -1.49,-18.47 -11.35,-26.2 1.67,-2.81 3.5,-4.61 5.45,-5.68 -6.69,-3.63 -13.54,-7.09 -20.42,-10.13"
           style="fill:url(#linearGradient15464);fill-opacity:1;fill-rule:nonzero;stroke:none"
           id="path17044" />
        <path
           d="m 4099.56,2608.09 c 3.18,2.45 6.18,5.38 8.98,8.6 0.88,-1.22 1.76,-2.51 2.66,-3.9 -3.88,-1.72 -7.77,-3.3 -11.64,-4.7"
           style="fill:url(#linearGradient15466);fill-opacity:1;fill-rule:nonzero;stroke:none"
           id="path17046" />
        <path
           d="m 4108.51,2667.72 c 0.06,0.8 0.04,1.61 -0.07,2.43 -1.63,0.61 -3.34,1.02 -5.1,1.28 3.27,2.62 5.49,5.55 6.56,8.84 1.37,-2.68 2.44,-5.15 3.47,-8.22 -1.54,-1.47 -3.17,-2.91 -4.86,-4.33 m 39.02,65.16 c 0.07,0.13 0.14,0.27 0.21,0.4 0,-0.11 0,-0.22 0,-0.33 -0.07,-0.02 -0.14,-0.05 -0.21,-0.07 m 102.28,11.57 c -6.05,4.96 -13.9,4.07 -18.65,13.34 17.14,10.6 6.1,6.6 10.33,17.03 1.5,-5.06 4.23,-6.11 7.28,-6.11 1.09,0 2.23,0.13 3.37,0.27 1.14,0.14 2.28,0.27 3.38,0.27 2.33,0 4.46,-0.61 6.01,-3.13 4.72,-9.91 0.19,-16.93 -11.72,-21.67 m -138.69,38.21 c -2.44,0 -4.89,0.72 -7.34,2.44 7.1,6.42 13.67,11.9 19.48,16.04 2.01,-7.36 -2.44,-12.72 -7.83,-17.79 -1.43,-0.44 -2.87,-0.69 -4.31,-0.69"
           style="fill:url(#linearGradient15468);fill-opacity:1;fill-rule:nonzero;stroke:none"
           id="path17048" />
        <path
           d="m 4085.75,2749.91 c -4.21,0.78 -8.8,2.18 -13.8,4.3 11.18,11.33 22.01,22 31.83,30.89 2.45,-1.72 4.9,-2.44 7.34,-2.44 1.44,0 2.88,0.25 4.31,0.69 -4.04,-3.81 -8.61,-7.45 -11.37,-11.65 1.53,-0.25 3.2,-0.35 4.97,-0.35 4.17,0 8.92,0.58 13.79,1.23 -2.48,-8.49 -7.35,-16.11 -15.19,-20.23 -2.7,5.11 -6.59,9.14 -11.03,11.54 -2.86,-4.89 -6.65,-9.5 -10.85,-13.98"
           style="fill:url(#linearGradient15470);fill-opacity:1;fill-rule:nonzero;stroke:none"
           id="path17050" />
        <path
           d="m 4176.08,2880.48 c -7.78,0 -11.86,11.95 -16.94,20.78 8.85,-0.79 23.9,-8.6 21.86,-19.36 -1.8,-0.99 -3.43,-1.42 -4.92,-1.42 m -560.72,174.81 c -1.63,15.99 -1.45,31.41 1.55,45.97 2,-10.49 6.99,-21.16 11.14,-32.99 -4.49,-4.01 -8.65,-8.41 -12.69,-12.98 m 80.19,1.5 c -1.37,1.26 -2.71,2.55 -4,3.87 1.46,-0.89 2.94,-1.73 4.43,-2.53 -0.14,-0.45 -0.29,-0.89 -0.43,-1.34 m 2.88,20.56 c -1.38,0 -2.68,0.51 -3.85,1.78 -1.91,9.64 -3.16,18.09 -7.85,25.01 6.81,6.46 13.77,11.3 21.49,15.45 1.74,-1.77 3.54,-3.2 5.4,-4.28 -3.13,-12.06 -6.95,-24.31 -10.97,-36.74 -1.46,-0.74 -2.88,-1.22 -4.22,-1.22"
           style="fill:url(#linearGradient15472);fill-opacity:1;fill-rule:nonzero;stroke:none"
           id="path17052" />
        <path
           d="m 3733.33,3031.53 c -13.9,7.36 -27.03,15.36 -37.78,25.26 0.14,0.45 0.29,0.89 0.43,1.34 9.17,-4.88 18.63,-7.84 25.41,-7.99 -2.6,5.44 2.68,5.63 8,5.73 -3.72,9.98 1.69,18.44 -9.19,29.6 -0.9,0.63 -1.85,0.9 -2.86,0.9 -2.91,0 -6.18,-2.26 -9.46,-4.51 -1.76,-1.22 -3.53,-2.43 -5.23,-3.29 4.02,12.43 7.84,24.68 10.97,36.74 2.92,-1.71 5.99,-2.56 9.19,-2.56 0.63,0 1.27,0.03 1.91,0.09 -2.66,5.11 3.18,8.84 9.07,12.55 l -3.01,4.2 c 5.58,2.14 11.61,4.33 18.21,6.76 4.62,-1.5 9.2,-3.12 13.77,-4.75 0.16,-11.12 13.61,-26.36 9.37,-36.14 -14.89,-9.44 -25.77,-20.15 -34.99,-31.41 -9.44,-13.18 17.73,-22.18 8.24,-27.86 -3.94,-1.44 -7.95,-3 -12.05,-4.66 m 11.89,77.93 c -10.34,-5.25 -4.52,-28.78 1.28,-28.78 0.36,0 0.71,0.09 1.07,0.28 -1.52,9.61 12.52,16.67 -2.35,28.5"
           style="fill:url(#linearGradient15474);fill-opacity:1;fill-rule:nonzero;stroke:none"
           id="path17054" />
      </g>
    </g>
  </g>
</svg>
