<?xml version="1.0" encoding="UTF-8" standalone="no"?>
<svg
   xmlns:dc="http://purl.org/dc/elements/1.1/"
   xmlns:cc="http://creativecommons.org/ns#"
   xmlns:rdf="http://www.w3.org/1999/02/22-rdf-syntax-ns#"
   xmlns:svg="http://www.w3.org/2000/svg"
   xmlns="http://www.w3.org/2000/svg"
   xmlns:xlink="http://www.w3.org/1999/xlink"
   version="1.1"
   id="svg13109"
   viewBox="0 0 169.6975 189.20605"
   height="53.398151mm"
   width="47.892406mm">
  <defs
     id="defs13111">
    <linearGradient
       id="linearGradient13677">
      <stop
         id="stop13679"
         offset="0"
         style="stop-color:#999999;stop-opacity:1;" />
      <stop
         id="stop13681"
         offset="1"
         style="stop-color:#999999;stop-opacity:0;" />
    </linearGradient>
    <clipPath
       id="clipPath19556"
       clipPathUnits="userSpaceOnUse">
      <path
         id="path19558"
         d="M 0,4991.15 0,0 l 5666.26,0 0,4991.15 -5666.26,0 z" />
    </clipPath>
    <linearGradient
       gradientUnits="userSpaceOnUse"
       y2="1067.8308"
       x2="3691.51"
       y1="1067.8308"
       x1="1313.98"
       id="linearGradient13683"
       xlink:href="#linearGradient13677" />
    <linearGradient
       y2="1067.8308"
       x2="3691.51"
       y1="1067.8308"
       x1="1313.98"
       gradientUnits="userSpaceOnUse"
       id="linearGradient13687"
       xlink:href="#linearGradient13677" />
    <linearGradient
       y2="1067.8308"
       x2="3691.51"
       y1="1067.8308"
       x1="1313.98"
       gradientUnits="userSpaceOnUse"
       id="linearGradient13689"
       xlink:href="#linearGradient13677" />
    <linearGradient
       y2="1067.8308"
       x2="3691.51"
       y1="1067.8308"
       x1="1313.98"
       gradientUnits="userSpaceOnUse"
       id="linearGradient13691"
       xlink:href="#linearGradient13677" />
  </defs>
  <metadata
     id="metadata13114">
    <rdf:RDF>
      <cc:Work
         rdf:about="">
        <dc:format>image/svg+xml</dc:format>
        <dc:type
           rdf:resource="http://purl.org/dc/dcmitype/StillImage" />
        <dc:title></dc:title>
      </cc:Work>
    </rdf:RDF>
  </metadata>
  <g
     transform="translate(-242.909,-325.39263)"
     id="layer1">
    <g
       style="fill:url(#linearGradient13683);fill-opacity:1"
       transform="matrix(0.125,0,0,-0.125,-42.314753,517.39263)"
       clip-path="url(#clipPath19556)"
       id="g19554">
      <path
         id="path19562"
         style="fill:url(#linearGradient13687);fill-opacity:1;fill-rule:nonzero;stroke:none"
         d="m 3069.12,22.3516 c -8.99,8.5586 -14.37,16.8984 -17.46,25.25 7.91,1.8789 15.88,4.0898 23.88,6.5586 4.1,-12.8086 6.27,-24.9414 -6.42,-31.8086 m 174.78,83.7774 c -7.17,0.492 -14.42,0.711 -21.77,0.711 -1.96,0 -3.92,-0.012 -5.89,-0.039 9.93,3.32 19.81,6.32 29.61,8.847 -0.92,-3.136 -1.58,-6.328 -1.95,-9.519 m -274.86,345.672 c 10.42,10.191 17.59,23.379 22.27,37.609 31.3,0.539 63.04,3.832 96.88,19.77 17.41,-0.95 34.47,-4.09 51.87,-5.071 22,11.801 44.83,19.371 67.27,26.223 4.47,-5.461 8.72,-11.5 12.69,-18.332 1.47,-0.699 3.08,-1 4.8,-1 4.7,0 10.18,2.23 15.67,4.469 5.48,2.23 10.96,4.472 15.66,4.472 0.01,0 0.02,0 0.03,0 -15.88,-6.711 -30.31,-14.66 -39.75,-21.351 -7.03,1.82 -13.93,2.609 -20.75,2.609 -39.18,0 -75.4,-26.179 -114.27,-33.058 -37.4,-6.641 -76.11,-5.469 -112.37,-16.34 m -631.31,212.5 c -0.03,3.668 0.22,7.238 0.7,10.73 3.42,-1.722 6.86,-3.41 10.33,-5.082 -3.19,-1.937 -6.83,-3.82 -11.03,-5.648 m 1049.58,22.179 c -7.45,3.192 -14.75,6.821 -21.89,10.879 18.94,0.289 36.49,4.84 54.14,11.512 l -91.27,20.688 c 3.49,-4.911 7.56,-9.918 10.75,-14.778 -23.79,18.008 -45.76,41.18 -66.04,69.16 -7.99,17.09 15.67,23 13.38,38.039 -14.69,20.551 -16.44,50.68 -27.13,56.532 -1.51,0.039 -3,0.058 -4.49,0.058 -65.4,0 -113.47,-37.25 -160.03,-78.929 -4.4,-16.661 -4.95,-34.61 -2.85,-53.27 -18.42,8.43 -36.68,17.809 -54.85,27.699 6.31,17.02 34.35,12.239 23.27,34.789 -1.78,0.262 -3.49,0.379 -5.13,0.379 -21.61,0 -32.28,-21.207 -59.2,-28.418 -102.12,34.371 -203.16,75.301 -310.92,75.301 -11.01,0 -22.09,-0.43 -33.25,-1.34 -5.63,0.75 -11.49,1.141 -17.56,1.141 -11.91,0 -24.71,-1.492 -38.42,-4.633 -31.79,20.711 -53.76,56.07 -84.48,56.07 -5.27,0 -10.8,-1.05 -16.68,-3.379 -29.26,-11.66 -24.6,-46.289 -42.16,-83.449 -4.48,-9.48 -11.55,-19.98 -19.63,-30.871 -9.45,0.809 -18.84,2.012 -28.18,3.481 0.57,1.718 1.08,3.441 1.55,5.187 -10.08,42.004 20.33,69.793 24.7,106.66 -47.1,40.532 -23.81,93.293 -76.8,133.862 -27.77,-11.6 -26.99,-33.19 -61.92,-42.299 0.08,36.909 -1.5,83.139 -10.43,124.659 0.5,4.27 1.18,8.42 2.07,12.43 1.11,-0.17 2.23,-0.35 3.34,-0.52 3.87,-0.6 7.78,-1.19 11.73,-1.66 -3.21,-8.76 -12.3,-15.73 -5.93,-27.44 8.59,2.08 20.25,14.12 28.24,14.12 1.65,0 3.14,-0.51 4.42,-1.74 6.59,-14.45 2.5,-17.46 14.18,-26.83 6.2,3.28 12.44,4.35 18.79,4.35 6.04,0 12.17,-0.97 18.44,-1.94 6.28,-0.97 12.71,-1.94 19.34,-1.94 1.76,0 3.54,0.07 5.33,0.22 0.67,-47.38 8.51,-94.959 26.42,-137.229 12.79,35.508 2.45,91.699 -1.49,145.079 12.32,5.95 24.32,13.12 36.92,13.12 4.41,0 8.89,-0.87 13.48,-2.99 l 0,0 c -0.73,15.49 9.32,26.75 26.1,31.69 14.11,-38.53 22.05,-84.3 63.72,-92.99 20.06,42.03 -30.49,78.71 -53.22,123.23 6.49,19.57 21.15,36.61 5.15,63.09 6.85,3.23 11.47,7.15 13.29,11.91 -3.37,13.32 -14.37,1.83 -17.77,15.12 -2.12,11.55 11.88,18.13 8.2,30.16 0.79,1.52 1.59,3.03 2.39,4.53 31.55,-13.15 64.89,-25.78 88.99,-48.41 10.87,-10.21 18.05,-33.03 34.11,-33.03 1.98,0 4.09,0.34 6.36,1.1 -34.44,39.25 -64.46,84.85 -100.84,121.29 6.09,6.48 12.86,12.5 20.48,17.92 12.05,-8.01 5.07,-19.01 5.63,-31.62 0.68,-0.06 1.31,-0.09 1.89,-0.09 14.87,0 2.77,18.77 16.35,19.66 18.19,-47.59 68.12,-83.49 94.72,-135.25 8.93,-17.38 15.12,-37.88 21.85,-57.86 -1.44,-6.84 -2,-13.95 -1.62,-21.16 -13.51,-17.36 -16.4,-41.92 -5.94,-64.51 14.62,4.32 27.67,13.56 37.08,25.36 9.71,-11.34 22.14,-19.7 38.99,-23.22 11.38,23.85 4.57,46.32 -8.91,68.95 13.58,19.77 19.66,43.96 13.4,67.02 -0.69,-0.15 -1.36,-0.22 -2.01,-0.22 -3.57,0 -6.43,2.28 -8.38,7.62 -16.73,-3.22 -30.57,-10.62 -41.07,-20.72 -11.05,15.55 -21.13,31.68 -27.04,48.82 -4.63,13.49 1.11,28.09 -2.21,43.06 -5.25,23.58 -21.67,49.51 -27.41,73.75 14,6 26.11,16.33 34.45,28.82 15.95,-7.01 32.62,-13.57 49.03,-20.63 6.56,-5.9 13.22,-11.46 20.29,-15.38 16.52,-9.18 33.33,-16.03 48.25,-22.71 3.59,-2.84 7.05,-5.81 10.38,-8.93 13.58,-12.75 22.56,-41.27 42.63,-41.27 0.42,0 0.85,0.01 1.29,0.04 2.29,-4.24 4.85,-8.27 8.14,-11.73 13.64,-14.4 41.75,-22.03 63.03,-36.61 25.03,-17.09 45.22,-42.86 66.02,-53.42 16.68,-8.5 37.01,-4.93 54.34,-12.05 57.2,-23.5 104.61,-71.65 157.05,-76.37 13.45,7.83 16.15,23.19 9.35,45.12 -31.37,28.31 -75.76,37.71 -111.04,61.5 8.46,5.73 14.42,13.66 13.61,22.24 -5.46,15.85 -15.55,21.96 -25.66,21.96 -7.03,0 -14.07,-2.95 -19.58,-7.65 -3.27,5.29 -6.95,10.15 -11.95,13.52 -20.8,14.01 -43.5,7.33 -67.7,14.05 -29.3,8.04 -52.49,35.33 -82.91,50.43 -16.11,8.01 -35.02,6.17 -50.11,12.82 -18.74,8.24 -36.67,18.38 -54.06,29.54 -28.84,36.89 -58.05,73.23 -92.41,102.17 0.76,36.52 11.3,59.21 27.58,72.24 4.88,-5.94 9.92,-11.64 15.39,-16.73 8.75,-16.56 1.54,-18.27 11.83,-35.94 1.02,0.14 2.03,0.21 3.03,0.21 12.37,0 23.39,-10.66 33.23,-21.32 9.85,-10.67 18.54,-21.33 26.24,-21.33 3.2,0 6.24,1.85 9.12,6.33 -27.86,26.3 -54.22,67.44 -82.85,97.96 10.1,3.99 21.43,5.68 33.44,5.68 30.91,0 66.27,-11.23 96.37,-23.6 27.26,-11.24 54.37,-14.18 68.82,-20.36 24.52,-10.44 44.95,-39.42 69.18,-52.85 42.21,-23.46 85.89,-34.78 107.89,-56.84 13.33,-13.37 17.13,-34.91 30.43,-48.89 17.06,-17.98 52.15,-27.52 78.74,-45.73 31.27,-21.37 56.52,-53.56 82.51,-66.76 20.84,-10.63 46.24,-6.15 67.9,-15.06 9.69,-3.98 19.16,-8.53 28.45,-13.44 -0.01,-0.07 -0.03,-0.15 -0.05,-0.23 -6.17,2.3 -12.02,3.64 -17.26,3.74 5.67,-2.41 10.99,-5.34 16.07,-8.61 -14.44,-53.04 -71.64,-91.04 -38.23,-160.84 10.1,1.77 19.86,2.59 29.33,2.59 63.2,0 113.45,-36.741 163.29,-74.679 -3.92,-23.613 11.35,-63.839 37.13,-64.41 -11.77,-24.761 -16.87,-51.883 -22.81,-78.722 -6.77,-2.758 -13.44,-6.047 -19.98,-10.047 -21.41,-13.063 -39.19,-36.492 -59.76,-42.852 -46.88,-14.39 -82.2,-36.238 -117.26,-49.539 l 15.74,-3.562 c -16.17,-7.321 -32.24,-14.028 -47.99,-18.829 m -345.96,260.532 c -3.65,0 -7.45,-0.91 -11.48,-3.153 6.13,-6.269 12.78,-9.39 19.93,-9.39 4.55,0 9.3,1.25 14.26,3.769 -7.33,4.344 -14.65,8.774 -22.71,8.774 m 150.28,40.457 c -17.42,-2.457 -21.54,-5.129 -34.73,-18.867 4.89,-6.032 10.39,-8.301 16.27,-8.301 9.35,0 19.64,5.738 29.91,11.23 l -11.45,15.938 m 114.52,73.681 c -29.22,0 -60.8,-41.85 -13.49,-68.091 35.73,4.312 50.26,30.331 39.22,51.421 -6.19,11.86 -15.83,16.67 -25.73,16.67 m -77.01,-16.61 c -11.36,-6.33 -9.09,-14.93 -0.52,-24.54 5.37,4.11 10.08,4.44 14.81,4.6 1.36,8.91 -5.42,18.34 -14.29,19.94 m -408.6,34.84 c -3.88,0 -7.88,-1.3 -11.44,-4.24 -1.81,-9.01 8.04,-22.74 17.15,-23.94 l 11.96,8.57 c 1.51,11.02 -7.66,19.61 -17.67,19.61 m 185.5,372.11 c 4.74,-29.07 39.21,-43.8 56.9,-43.8 1.93,0 3.66,0.17 5.14,0.53 -23.3,10.72 -34.85,38.2 -62.04,43.27" />
      <path
         id="path19564"
         style="fill:url(#linearGradient13689);fill-opacity:1;fill-rule:nonzero;stroke:none"
         d="m 3292.66,993.059 c -47.31,26.241 -15.73,68.091 13.49,68.091 9.9,0 19.54,-4.81 25.73,-16.67 11.04,-21.09 -3.49,-47.109 -39.22,-51.421 m -160.1,196.761 c -5.24,3.54 -10.28,7.39 -15.05,11.68 -7.02,6.32 -11.23,16.18 -16.58,24.87 5.51,4.7 12.55,7.65 19.58,7.65 10.11,0 20.2,-6.11 25.66,-21.96 0.81,-8.58 -5.15,-16.51 -13.61,-22.24" />
      <path
         id="path19566"
         style="fill:url(#linearGradient13691);fill-opacity:1;fill-rule:nonzero;stroke:none"
         d="m 3051.66,47.6016 c -9.01,24.3984 1.54,48.9179 -1.22,79.5974 -26.38,26.129 -69.06,6.082 -83.01,67.699 -3.5,2.622 -7.68,3.301 -12.1,3.301 -2.45,0 -4.98,-0.211 -7.51,-0.418 -2.53,-0.211 -5.06,-0.422 -7.51,-0.422 -2.07,0 -4.08,0.153 -6,0.571 -1.33,45.879 -42.23,57.55 -6.1,91.941 -6.35,30.43 -32.83,3.859 -40.29,31.25 46.29,27.859 53.63,69.457 52.89,113.899 11.33,3.511 20.64,9.351 28.23,16.781 36.26,10.871 74.97,9.699 112.37,16.34 38.87,6.879 75.09,33.058 114.27,33.058 6.82,0 13.72,-0.789 20.75,-2.609 9.44,6.691 23.87,14.64 39.75,21.351 1.71,-0.011 3.32,-0.312 4.79,-1.019 37.34,-47.942 61.44,-104.953 112.38,-142.043 -21.37,-15.32 -25.43,-36.649 -29,-58.25 6.91,-16.649 21.89,-10.609 27.52,-31.02 -27.92,-29.281 -46.65,-77.968 -60.73,-123.949 -35.11,-2.469 -58.17,-23.89 -65.29,-48.012 -9.8,-2.527 -19.68,-5.527 -29.61,-8.847 -46.49,-0.719 -95.9,-9.6291 -143.38,-13.1526 -9.07,-9.6601 -1.96,-25.0078 2.68,-39.4882 -8,-2.4688 -15.97,-4.6797 -23.88,-6.5586 M 2991.31,489.41 c 1.73,5.262 3.12,10.672 4.21,16.121 4.24,2.301 7.9,2.981 11.33,2.981 2.5,0 4.86,-0.364 7.23,-0.723 2.37,-0.359 4.73,-0.719 7.23,-0.719 4.41,0 9.23,1.129 15.14,5.391 5.88,5.059 3.76,12.949 10.49,17.711 -57.48,80.719 -3.57,146.777 -60.15,217.707 -11.77,-15.82 11.95,-44.098 -18.7,-53.199 -25.52,36.019 -4.31,55.609 -16.44,86.961 -56.13,2.398 -106.06,22.418 -154.8,45.91 -16.23,-78.352 11.3,-172.082 8.55,-255.129 -15.47,114.289 -43.17,267.758 -153.6,282.359 11.16,0.91 22.24,1.34 33.25,1.34 107.76,0 208.8,-40.93 310.92,-75.301 26.92,7.211 37.59,28.418 59.2,28.418 1.64,0 3.35,-0.117 5.13,-0.379 11.08,-22.55 -16.96,-17.769 -23.27,-34.789 18.17,-9.89 36.43,-19.269 54.85,-27.699 7.69,-68.422 50.92,-146.391 69.98,-205.32 0.83,-1.531 1.78,-2.153 2.84,-2.153 2.3,0 5.11,2.891 8.36,5.782 3.25,2.89 6.93,5.769 10.97,5.769 1.92,0 3.91,-0.648 5.98,-2.25 6.01,-5.328 11.82,-11.16 17.32,-17.867 -22.44,-6.852 -45.27,-14.422 -67.27,-26.223 -17.4,0.981 -34.46,4.121 -51.87,5.071 -33.84,-15.938 -65.58,-19.231 -96.88,-19.77 m 481.38,179.86 c -30.47,0 -58.9,5.851 -85.38,17.21 15.75,4.801 31.82,11.508 47.99,18.829 l -15.74,3.562 c 35.06,13.301 70.38,35.149 117.26,49.539 20.57,6.36 38.35,29.789 59.76,42.852 6.54,4 13.21,7.289 19.98,10.047 -6.93,-31.309 -14.98,-62.227 -36.04,-88.547 -32.17,-15.75 -57.8,-33.774 -82.44,-52.184 -8.62,-0.879 -17.08,-1.308 -25.39,-1.308 m -1123.93,0.679 c -3.47,1.672 -6.91,3.36 -10.33,5.082 6.25,44.949 52.18,75.91 66.26,118.11 9.34,-1.469 18.73,-2.672 28.18,-3.481 -16.22,-21.871 -36.53,-45.269 -48.3,-64.949 -13.62,-22.781 -11.87,-40.25 -35.81,-54.762 m 1016.66,27.41 c -9.04,5.129 -17.83,10.942 -26.38,17.422 -3.19,4.86 -7.26,9.867 -10.75,14.778 l 91.27,-20.688 c -17.65,-6.672 -35.2,-11.223 -54.14,-11.512 m -315.62,237.11 c -7.15,0 -13.8,3.121 -19.93,9.39 4.03,2.243 7.83,3.153 11.48,3.153 8.06,0 15.38,-4.43 22.71,-8.774 -4.96,-2.519 -9.71,-3.769 -14.26,-3.769 m 123.37,25.832 c -5.88,0 -11.38,2.269 -16.27,8.301 13.19,13.738 17.31,16.41 34.73,18.867 l 11.45,-15.938 c -10.27,-5.492 -20.56,-11.23 -29.91,-11.23 m 55.45,59.699 c -8.57,9.61 -10.84,18.21 0.52,24.54 8.87,-1.6 15.65,-11.03 14.29,-19.94 -4.73,-0.16 -9.44,-0.49 -14.81,-4.6 m -402.37,31.2 c -9.11,1.2 -18.96,14.93 -17.15,23.94 3.56,2.94 7.56,4.24 11.44,4.24 10.01,0 19.18,-8.59 17.67,-19.61 l -11.96,-8.57" />
    </g>
  </g>
</svg>
