<?xml version="1.0" encoding="UTF-8" standalone="no"?>
<svg
   xmlns:dc="http://purl.org/dc/elements/1.1/"
   xmlns:cc="http://creativecommons.org/ns#"
   xmlns:rdf="http://www.w3.org/1999/02/22-rdf-syntax-ns#"
   xmlns:svg="http://www.w3.org/2000/svg"
   xmlns="http://www.w3.org/2000/svg"
   xmlns:xlink="http://www.w3.org/1999/xlink"
   version="1.1"
   id="svg16256"
   viewBox="0 0 161.53658 338.82099"
   height="338.82098"
   width="161.53658">
  <defs
     id="defs16258">
    <linearGradient
       gradientTransform="matrix(0.08994023,0.00311513,0.00311512,-0.08994022,1464.3818,527.23485)"
       gradientUnits="userSpaceOnUse"
       y2="-333.0983"
       x2="-13839.396"
       y1="-333.0983"
       x1="-15625.396"
       id="linearGradient32471"
       xlink:href="#linearGradient4178" />
    <linearGradient
       id="linearGradient4178">
      <stop
         id="stop4180"
		 class="nextcolor"
         offset="0"
         style="stop-color:#00c44a;stop-opacity:1;" />
      <stop
         id="stop4182"
		 class="nextcolor"
         offset="1"
         style="stop-color:#00c44a;stop-opacity:0;" />
    </linearGradient>
  </defs>
  <metadata
     id="metadata16261">
    <rdf:RDF>
      <cc:Work
         rdf:about="">
        <dc:format>image/svg+xml</dc:format>
        <dc:type
           rdf:resource="http://purl.org/dc/dcmitype/StillImage" />
        <dc:title></dc:title>
      </cc:Work>
    </rdf:RDF>
  </metadata>
  <g
     transform="translate(-58.333713,-343.15189)"
     id="layer1">
    <path
       class="fil16"
       d="m 149.1758,343.15189 c 2.15857,0.0748 4.19604,1.04577 6.01312,3.17985 7.95677,9.46048 -6.23516,29.22978 -8.29876,36.81239 -2.47319,9.00919 -4.35498,24.34224 -1.26705,31.38285 16.50578,-0.77902 22.49255,-28.03632 36.59879,-34.93167 5.74915,5.60196 -5.68693,13.40028 -9.04314,16.70589 -3.37572,9.06798 -13.17688,13.86118 -12.08361,23.89444 1.93509,1.32766 3.53529,1.92344 4.88439,1.97015 5.93607,0.20561 7.81083,-9.72485 12.26191,-13.4427 10.5409,5.04759 -3.7028,18.51172 -6.35628,30.12603 -1.13222,1.49161 0.47112,1.9974 1.7116,2.58058 -0.45323,2.68583 -3.1448,-0.19897 -3.26629,3.30873 -1.94833,4.25481 5.69035,4.69949 3.64896,9.04113 -11.0938,0.51629 -9.33085,12.01341 -6.23669,18.87422 3.86078,2.92522 7.7839,4.05157 11.74128,4.18864 4.9467,0.17132 9.85954,-1.27928 14.67934,-2.64317 4.73297,-1.45694 9.37287,-2.82705 13.77994,-2.67441 4.31713,0.14953 8.31149,1.81869 11.92698,6.62642 -1.87747,7.40895 -8.12073,8.27326 -15.49582,8.01782 -1.43906,-0.0498 -2.96804,-0.10279 -4.40396,-0.24258 -1.52899,-0.053 -3.05485,-0.19587 -4.58384,-0.24883 -5.39642,-0.18689 -10.63164,0.1721 -14.68869,2.9131 -3.59489,2.39681 -9.86387,9.20348 -8.06274,14.39855 2.98317,2.26454 6.10035,0.66155 7.09864,3.03734 -7.1536,11.5486 5.38349,23.9592 16.172,32.25712 4.38487,3.39361 13.57084,5.96291 9.26185,13.37771 -9.77856,-1.05902 -19.55864,-12.47369 -26.62886,-18.9319 -0.35977,-0.0125 -0.71952,-0.0249 -0.98933,-0.0343 -8.72421,-0.30217 -15.87662,3.41218 -21.04179,12.14812 -0.33445,-3.34338 -5.32436,-4.86692 -8.12457,-7.21515 -1.01739,0.77524 -1.67811,1.65279 -2.15897,2.53669 0.695,-1.86697 -0.11717,-4.41651 -4.07727,-7.07498 l -5.81847,1.59945 c -2.9225,6.38226 -0.13162,9.00024 3.28609,9.11861 2.4284,0.0841 5.08027,-1.0847 6.22498,-2.93608 -1.573,3.81764 0.0732,8.287 -1.23,12.11388 9.68662,14.11286 12.65146,35.10677 23.07902,51.22628 1.79528,2.7637 5.15383,4.59094 7.0266,7.71745 3.48818,5.88386 4.32137,13.02649 8.3928,17.6699 3.29002,3.80596 7.92329,5.22709 9.83305,9.8857 1.24942,2.9248 -0.23052,6.6556 0.56608,9.65478 2.54788,9.63336 10.67246,16.84841 13.13664,26.29878 -1.23193,4.36968 -3.38156,6.63652 -6.43952,6.53061 0,0 -0.0899,-0.003 -0.0899,-0.003 -8.32626,-6.59176 -10.9263,-19.91895 -17.9525,-30.24765 -2.14261,-3.13584 -5.95707,-4.79877 -7.82673,-8.01522 -2.29132,-4.04153 -2.87338,-10.63514 -5.19856,-16.29872 -1.99346,-4.8416 -5.89437,-9.20894 -6.56988,-13.10436 -0.52367,-3.07977 0.84764,-6.27403 0.23091,-9.26696 -1.001,-4.89729 -5.85699,-10.2883 -9.48767,-17.25766 -2.11455,-3.94536 -2.27494,-9.71397 -4.67489,-13.21894 -1.3674,-2.1184 -4.78161,-4.93818 -7.43893,-8.81218 -4.45571,-6.54775 -10.86519,-13.88351 -17.6107,-14.11715 -3.68755,-0.12772 -7.62974,1.89684 -11.33055,7.3517 3.4718,11.5563 3.11004,24.6008 4.84808,36.81748 -4.28287,-1.13894 -2.47392,-6.56917 -3.26119,-9.83818 -1.26147,-5.17647 -4.16058,-9.86933 -7.24267,-14.47848 2.19324,-3.52589 -0.86082,-8.94456 -3.00341,-12.0804 -7.292894,-10.428 -18.1172,-28.09216 -24.160691,-35.59535 -7.165981,-8.89288 -14.815938,-16.81193 -21.101216,-25.13387 0.08683,0.0931 0.266735,0.0992 0.353517,0.19226 2.143791,-4.6982 3.220756,-9.79368 7.857949,-13.6852 0.716403,0.11487 1.522759,0.23275 2.242278,0.25767 10.612943,0.36759 20.544949,-8.20315 25.623294,-17.03206 4.01927,0.94969 7.740689,2.69936 11.375289,4.35606 5.22859,2.43235 10.36724,4.86158 16.03348,5.05783 1.88873,0.0654 3.87678,-0.13589 5.87727,-0.69697 -5.68686,-7.40079 -13.00236,-11.97646 -20.89178,-15.58151 0.54586,-0.1612 1.09174,-0.3224 1.63761,-0.4836 -0.27174,-7.75356 -2.14683,-16.01281 4.34524,-21.46105 1.60958,0.32591 3.22227,0.56187 4.83808,0.70789 -0.51472,-0.73826 -1.03567,-1.29653 -1.64656,-1.85801 1.07928,0.0374 2.23605,0.43766 3.30287,0.83483 1.06682,0.39707 2.13364,0.79423 3.03305,0.82538 1.07928,0.0374 1.90432,-0.38431 2.49691,-1.8946 -2.78424,-5.40922 -6.24438,-12.1026 -4.07878,-17.43044 4.68041,-2.53941 8.92357,-5.45408 10.78778,-7.28044 0.183,-0.0837 0.36289,-0.0775 0.63582,-0.15809 -0.0868,-0.0931 -0.17367,-0.1861 -0.26049,-0.27916 3.17946,-3.40178 6.37489,-9.86464 7.48572,-13.33798 4.35337,-13.89677 -10.74837,-27.65696 -6.972,-40.49304 1.83387,-6.1498 9.91762,-15.95526 17.20278,-15.70293 z m 3.89424,129.35391 c -2.90845,-4.42302 -6.83154,-5.5495 -11.05252,-5.8758 2.90845,4.42303 6.83154,5.5495 11.05252,5.8758 z"
       id="path2828"
       style="clip-rule:evenodd;fill:url(#linearGradient32471);fill-opacity:1;fill-rule:nonzero;image-rendering:optimizeQuality;shape-rendering:geometricPrecision;text-rendering:geometricPrecision" />
  </g>
</svg>
