<?xml version="1.0" encoding="UTF-8" standalone="no"?>
<svg
   xmlns:dc="http://purl.org/dc/elements/1.1/"
   xmlns:cc="http://creativecommons.org/ns#"
   xmlns:rdf="http://www.w3.org/1999/02/22-rdf-syntax-ns#"
   xmlns:svg="http://www.w3.org/2000/svg"
   xmlns="http://www.w3.org/2000/svg"
   xmlns:xlink="http://www.w3.org/1999/xlink"
   version="1.1"
   id="svg13748"
   viewBox="0 0 253.30466 312.28623"
   height="312.28622"
   width="253.30466">
  <defs
     id="defs13750">
    <radialGradient
       gradientUnits="userSpaceOnUse"
       gradientTransform="matrix(0.51763287,-1.1377857,-1.1308572,-0.51448078,254.82883,964.94778)"
       r="119.00109"
       fy="644.66669"
       fx="316.03552"
       cy="644.66669"
       cx="316.03552"
       id="radialGradient13733"
       xlink:href="#linearGradient13727" />
    <linearGradient
       id="linearGradient13727">
      <stop
         id="stop13729"
         offset="0"
         style="stop-color:#999999;stop-opacity:1;" />
      <stop
         id="stop13731"
         offset="1"
         style="stop-color:#999999;stop-opacity:0;" />
    </linearGradient>
  </defs>
  <metadata
     id="metadata13753">
    <rdf:RDF>
      <cc:Work
         rdf:about="">
        <dc:format>image/svg+xml</dc:format>
        <dc:type
           rdf:resource="http://purl.org/dc/dcmitype/StillImage" />
        <dc:title></dc:title>
      </cc:Work>
    </rdf:RDF>
  </metadata>
  <g
     transform="translate(456.98897,-156.89378)"
     id="layer1">
    <path
       d="m -209.49568,156.89378 c -6.95145,3.02135 -11.46799,10.09339 -18.55922,13.19258 -2.17651,0.94751 -5.1807,0.27014 -7.30436,1.5754 -3.33541,2.04897 -3.85285,5.70682 -6.37433,8.7166 -3.04028,3.64304 -8.41744,5.17511 -12.5331,8.52254 -2.17968,1.77553 -3.14012,4.58089 -5.06084,6.29433 -11.0599,9.88765 -26.81073,14.65841 -36.45466,23.78814 -4.02089,-0.71556 -8.22073,2.54825 -12.15408,-1.04021 0.47986,-0.78007 0.86366,-1.72331 1.24633,-2.66706 0.80856,-1.99145 1.61754,-3.98408 3.33715,-4.44045 -7.59849,-3.00922 -11.2927,-8.32772 -11.90937,-15.46644 4.11969,-6.14846 11.64568,-14.99068 11.31295,-22.6388 -4.79246,-1.86309 -6.39304,2.12595 -7.83511,5.76963 -0.41871,1.0592 -0.82458,2.08715 -1.29132,2.93498 -5.09845,9.26273 -13.12215,20.31884 -22.79198,16.24504 -0.99727,0.62844 -0.88567,1.62678 -0.87283,2.84523 0.008,0.8964 -0.0366,1.91279 -0.61819,2.98579 -3.77102,1.97714 -9.71718,-1.99559 -11.97376,-4.44906 -7.70347,-8.35373 -0.28151,-27.58958 -12.64596,-28.76807 -6.65905,6.90343 -3.04722,13.5742 0.33313,20.75078 2.8648,6.0851 5.56561,12.53367 1.70272,19.79597 -4.87928,3.17855 -13.47746,5.89841 -15.22297,-2.52017 -3.55835,-1.06818 -3.01316,4.80894 -6.50638,3.85416 -2.68382,0.30884 -0.78583,-2.1002 -2.90791,-2.12357 -0.32124,1.00192 -0.48573,2.26603 -1.79137,1.61024 -9.18372,-0.67487 -21.19529,-9.94899 -23.82821,-1.27294 4.14386,3.59361 15.06933,3.16575 10.79634,11.73698 -7.52413,2.01923 -12.4021,-4.91721 -19.74391,-6.43501 -2.95207,-2.18348 -10.32942,-10.01944 -13.91,-4.9413 6.96295,9.97238 28.59397,11.26331 31.15411,23.84688 -5.03881,3.22133 -16.94912,3.59527 -24.17395,2.78025 -6.05971,-0.68045 -22.84166,-9.18876 -29.17122,-1.95004 -6.28941,7.18969 6.00534,15.46106 12.38849,16.28179 10.2987,1.33319 19.02285,-11.83908 30.21712,-10.20145 2.83059,0.41299 8.39337,2.18571 11.32364,4.27826 2.82819,2.02413 9.97071,10.48795 11.91516,15.47182 2.30104,5.93573 3.89035,10.31171 1.84527,17.03461 -9.15961,10.16305 -15.56903,21.42897 -27.55537,26.75745 -4.30088,1.91323 -11.41705,1.28499 -11.71961,8.03846 4.08366,3.26409 8.38609,-0.51198 10.56142,-3.50346 6.7907,-2.44766 13.17496,-5.57461 19.02355,-9.62503 2.61531,0.0953 5.41331,0.48937 8.58498,1.50797 1.97841,3.04376 3.73498,6.21594 8.38161,7.67211 0.41574,0.68902 0.0498,1.3575 -0.40264,2.2132 -0.41163,0.78089 -0.89408,1.7177 -0.91985,2.96665 0.85032,1.69284 3.71263,2.19305 3.70352,4.39851 -1.08367,10.60448 -5.13669,17.83796 -7.77817,27.6829 -1.302,4.85409 -4.05619,8.03129 -6.76794,11.11518 -2.25908,2.56886 -4.49031,5.07349 -5.82656,8.43023 -1.03869,2.60909 -2.03707,4.70095 -2.93073,6.56578 -1.83028,3.81176 -3.2272,6.67398 -3.6555,11.06863 1.85692,3.16291 5.21673,3.33327 8.41965,2.1551 4.70695,-9.76356 13.02701,-12.04415 14.07104,-22.61585 0.24092,-2.41311 -1.29258,-5.07045 -0.76583,-7.78885 0.88147,-4.56064 3.46369,-8.87213 6.10296,-13.30598 2.26353,-3.80416 4.56847,-7.69935 5.8747,-11.9198 5.12236,-0.32003 7.49139,-5.28881 10.59274,-9.02079 2.06164,0.9531 1.72504,2.4657 4.36481,1.80998 1.51211,-0.85152 1.79174,-3.77848 3.74952,-3.87381 0.96274,1.44873 5.47807,0.79074 3.87122,3.75521 2.26722,1.26492 2.22523,-2.82047 3.5721,-0.46227 4.34734,6.72937 -6.50144,16.05939 -1.421,21.71466 4.52412,-0.64713 4.92057,-5.37624 5.28389,-10.03255 0.34866,-4.46109 0.66617,-8.85671 4.5578,-9.52929 1.05503,2.66762 -1.30769,7.36598 2.70485,8.281 1.95942,-4.83516 -2.18825,-9.12674 -1.21425,-14.10809 0.31223,-1.5979 1.2591,-3.11169 2.21834,-4.65556 0.78602,-1.26287 1.58074,-2.54788 2.04683,-3.91648 0.40085,-1.17993 -0.6251,-7.90198 3.28477,-7.43743 -0.0409,0.42497 -0.39652,0.90176 -0.75783,1.39106 -0.63993,0.86929 -1.29807,1.77561 -0.24084,2.49143 0.25481,-0.47871 0.47003,-1.02349 0.68413,-1.57016 0.59058,-1.49735 1.18168,-2.99585 2.58544,-3.11114 4.51388,3.37193 5.4667,8.8481 6.72952,14.14396 13.27734,18.14048 22.77912,38.51558 31.76572,59.196 -0.15798,0.6491 -0.71847,0.63443 -0.97995,1.1307 -0.8837,-0.2551 -1.5026,-0.0629 -2.10724,0.1523 -0.72724,3.03231 1.67479,-0.382 2.75385,0.0142 7.72314,7.45357 8.56265,18.47843 11.99974,28.60316 3.65289,10.77085 12.4047,22.07893 17.80773,32.85361 4.0317,8.03595 8.98955,15.62122 12.6807,23.25505 1.6619,3.44634 1.32896,9.82619 7.73704,7.50384 2.08145,-4.72608 -2.72705,-7.7308 -4.80309,-10.89176 -10.96981,-16.71989 -15.9142,-36.76843 -27.90856,-52.69101 -5.175,-9.91153 -8.0161,-20.63303 -12.79729,-30.87624 -2.73061,-5.8524 -6.93984,-11.05913 -9.46902,-16.91601 -3.91176,-9.06628 -6.62078,-18.52744 -11.20373,-26.32667 -4.32747,-7.39186 -16.53721,-22.40032 -7.60899,-29.55541 10.81145,5.83874 26.13978,2.61846 33.16269,13.32536 0.34384,-3.32758 -1.99326,-2.56438 0.19334,-6.16322 -3.16261,-3.98763 -9.97527,-5.81125 -11.77516,-10.60576 1.2281,-1.04527 1.94699,-2.94842 2.66537,-4.85043 0.85049,-2.24977 1.70047,-4.49841 3.39299,-5.3269 8.17539,8.10427 22.19114,16.38407 35.73686,16.73768 -5.78226,-5.63674 -21.95974,-6.69878 -27.48604,-13.93979 0.90199,-1.25818 2.24226,-1.77726 2.4567,-4.19556 -4.41875,-6.35811 -11.46152,-11.15933 -13.02457,-19.20924 1.53511,-0.95641 2.42537,0.40716 3.88911,0.99618 1.10136,-1.93789 -1.90757,-1.43364 -1.28249,-3.08833 6.3563,0.39378 13.02549,-3.42888 20.29157,-3.77612 7.13925,-0.34315 16.11267,3.38086 20.76448,-2.96222 -5.16097,-6.14235 -14.94895,0.34282 -23.34061,-0.4551 -1.77453,-0.17149 -3.13858,-1.58033 -5.0137,-1.97748 -4.78126,-1.00931 -11.77406,0.9921 -14.24623,-3.64683 5.56666,-4.26384 10.61123,-10.78803 17.26061,-13.51971 2.41756,-0.99439 6.80023,-0.29826 7.1563,-3.68895 -9.16697,2.76871 -19.18197,4.10516 -27.60988,8.11096 -13.01782,-6.25338 -5.23244,-16.45662 1.74978,-23.01389 2.68994,-2.51979 4.42775,-5.45214 5.87888,-6.77634 2.45708,-2.24945 6.81191,-3.07384 9.59418,-5.13552 4.85417,-3.58822 8.40317,-7.97211 12.05191,-9.33334 2.21123,-0.82459 4.85872,-0.14197 7.1378,-0.93157 2.92882,-1.01036 5.83064,-4.50903 9.27893,-6.59179 4.05009,-2.45168 9.01964,-3.65833 11.86685,-5.93216 2.28821,-1.8209 3.09327,-4.94277 5.22823,-6.94601 7.04171,-6.6126 16.95082,-10.2398 21.01591,-17.38813 -0.24209,-2.42 -2.25437,-3.79553 -5.81137,-4.24787"
       style="fill:url(#radialGradient13733);fill-opacity:1;fill-rule:nonzero;stroke:none"
       id="path13790-6" />
  </g>
</svg>
