<?xml version="1.0" encoding="UTF-8" standalone="no"?>
<svg
   xmlns:dc="http://purl.org/dc/elements/1.1/"
   xmlns:cc="http://creativecommons.org/ns#"
   xmlns:rdf="http://www.w3.org/1999/02/22-rdf-syntax-ns#"
   xmlns:svg="http://www.w3.org/2000/svg"
   xmlns="http://www.w3.org/2000/svg"
   xmlns:xlink="http://www.w3.org/1999/xlink"
   version="1.1"
   id="svg5636"
   viewBox="0 0 686.37874 726.81178"
   height="726.81177"
   width="686.37872">
  <defs
     id="defs5638">
    <linearGradient
       id="linearGradient14387">
      <stop
         id="stop14389"
         offset="0"
         style="stop-color:#ffffff;stop-opacity:1;" />
      <stop
         id="stop14391"
         offset="1"
         style="stop-color:#ffffff;stop-opacity:0;" />
    </linearGradient>
    <linearGradient
       id="linearGradient14323">
      <stop
         id="stop14325"
         offset="0"
         style="stop-color:#000000;stop-opacity:1;" />
      <stop
         id="stop14327"
         offset="1"
         style="stop-color:#000000;stop-opacity:0;" />
    </linearGradient>
    <linearGradient
       gradientTransform="matrix(-0.99987078,-0.0160758,0.0160758,-0.99987078,2125.3949,382.04131)"
       gradientUnits="userSpaceOnUse"
       y2="182.52316"
       x2="1403.5078"
       y1="182.52316"
       x1="724.95728"
       id="linearGradient14331"
       xlink:href="#linearGradient14323" />
    <linearGradient
       gradientTransform="matrix(1,0,0,0.95986199,1179.4613,352.1036)"
       gradientUnits="userSpaceOnUse"
       y2="-181.28516"
       x2="-300.58789"
       y1="-187.01062"
       x1="-483.80243"
       id="linearGradient14393"
       xlink:href="#linearGradient14387" />
  </defs>
  <metadata
     id="metadata5641">
    <rdf:RDF>
      <cc:Work
         rdf:about="">
        <dc:format>image/svg+xml</dc:format>
        <dc:type
           rdf:resource="http://purl.org/dc/dcmitype/StillImage" />
        <dc:title></dc:title>
      </cc:Work>
    </rdf:RDF>
  </metadata>
  <g
     transform="translate(-719.20732,182.31464)"
     id="layer1">
    <flowRoot
       transform="translate(-69.025597,232.92975)"
       style="font-style:normal;font-variant:normal;font-weight:normal;font-stretch:normal;font-size:180px;line-height:125%;font-family:'Indie Flower';-inkscape-font-specification:'Indie Flower, Normal';text-align:start;letter-spacing:0px;word-spacing:0px;writing-mode:lr-tb;text-anchor:start;fill:#000000;fill-opacity:1;stroke:none;stroke-width:1px;stroke-linecap:butt;stroke-linejoin:miter;stroke-opacity:1"
       id="flowRoot6213"
       xml:space="preserve"><flowRegion
         id="flowRegion6215"><rect
           y="27.145578"
           x="144.56807"
           height="300.5871"
           width="254.78334"
           id="rect6217" /></flowRegion><flowPara
         id="flowPara6219"></flowPara></flowRoot>    <flowRoot
       transform="translate(-69.025597,232.92975)"
       style="font-style:normal;font-variant:normal;font-weight:normal;font-stretch:normal;font-size:37.5px;line-height:125%;font-family:'Indie Flower';-inkscape-font-specification:'Indie Flower, Normal';text-align:start;letter-spacing:0px;word-spacing:0px;writing-mode:lr-tb;text-anchor:start;fill:#000000;fill-opacity:1;stroke:none;stroke-width:1px;stroke-linecap:butt;stroke-linejoin:miter;stroke-opacity:1"
       id="flowRoot6239"
       xml:space="preserve"><flowRegion
         id="flowRegion6241"><rect
           y="410.75195"
           x="582.56641"
           height="134.54851"
           width="18.607773"
           id="rect6243" /></flowRegion><flowPara
         id="flowPara6245"></flowPara></flowRoot>    <path
       id="path14321"
       d="m 1401.7972,-179.41792 c 1.4685,0.24176 3.1032,0.98239 3.6324,1.64584 0.6206,0.77805 -0.6177,124.02291 -3.4886,347.17941 -2.448,190.28524 -4.2459,347.39244 -3.9955,349.12711 0.826,5.72181 -1.17,7.92369 -10.6276,11.724 -32.1279,12.90972 -75.7579,16.86638 -130.8156,11.86322 -35.4574,-3.22204 -59.3015,-7.53036 -98.2274,-17.74841 -37.7328,-9.90489 -52.2621,-12.03188 -107.1715,-15.68924 -43.1466,-2.87387 -105.00586,-3.85259 -132.071,-2.08962 -25.22428,1.64311 -55.40013,5.31682 -106.22423,12.93214 -20.15244,3.01958 -35.08606,7.37355 -68.62259,20.00715 -16.91835,6.37335 -18.19228,6.4399 -22.37999,1.16922 l -2.59827,-3.27007 8.31786,-336.38649 c 4.57472,-185.012569 8.54759,-337.28291 8.82854,-338.37854 0.7001,-2.73047 17.08151,-13.64123 29.32185,-19.52966 12.11324,-5.8273 27.4712,-10.65849 49.75806,-15.65263 25.61118,-5.73904 32.10773,-6.37471 85.64579,-8.38006 55.48487,-2.07827 105.18688,-1.86248 129.50768,0.56229 7.9633,0.79394 32.2405,2.40832 53.9493,3.58753 42.6269,2.31545 62.5717,3.951 115.8622,9.50112 18.9458,1.97318 44.1167,3.98817 55.9353,4.47777 22.9176,0.94939 60.0482,0.0643 79.1349,-1.88641 11.0899,-1.1334 31.6256,-5.24175 35.0749,-7.01704 1.5441,-0.79469 23.8797,-7.31946 27.0787,-7.91033 0.8276,-0.15284 2.7063,-0.0801 4.1748,0.16164 z"
       style="fill:url(#linearGradient14331);fill-opacity:1" />
    <path
       id="path14321-5"
       d="m 878.8734,-164.20278 c -36.47397,1.45855 -44.43026,2.55596 -66.60938,7.32644 -22.28686,4.79369 -37.64457,9.43069 -49.75781,15.02409 -1.25067,0.57751 -2.5512,1.21571 -3.86719,1.88036 l 0,660.36442 c 21.81753,-7.44341 34.80304,-10.6758 50.99805,-13.00501 28.80436,-4.14271 50.83893,-7.03838 69.23633,-9.08494 l 0,-662.50536 z"
       style="fill:url(#linearGradient14393);fill-opacity:1" />
  </g>
</svg>
